<?xml version="1.0" encoding="utf-8"?>
<rect x="531.95" y="152.35" width="80" height="80" fill="#E8E1EF" />
<!-- Generator: Adobe Illustrator 27.5.0, SVG Export Plug-In . SVG Version: 6.00 Build 0)  -->
<svg version="1.1" id="Layer_1" xmlns="http://www.w3.org/2000/svg" xmlns:xlink="http://www.w3.org/1999/xlink" x="0px" y="0px"
	 viewBox="531.95 152.35 80 80" style="enable-background:new 0 0 633.049 400;" xml:space="preserve">
<g>
	
</g>
<g>
	<g>
		<path style="fill:#E8E1EF;" d="M363.32,38.44v80c0,2.49-1.39,4.66-3.43,5.76c-0.93,0.51-1.98,0.79-3.11,0.79h-80
			c-0.47,0-0.92-0.05-1.36-0.15c-1.03-0.21-1.98-0.67-2.77-1.32c-1.48-1.19-2.42-3.03-2.42-5.08v-80c0-3.61,2.93-6.54,6.55-6.54h80
			C360.39,31.9,363.32,34.83,363.32,38.44z"/>
	</g>
	<g>
		<path style="fill:#40507F;" d="M353.29,124.99h-76.51c-0.47,0-0.92-0.05-1.36-0.15c4.38-21.65,12.88-35.94,20.45-38.46
			c9.32-3.11,26.52-0.62,34.61,0.84c2.99,0.54,5.74,1.07,7.74,3.35C343.07,96.07,350.77,109.93,353.29,124.99z"/>
	</g>
	<g>
		<path style="fill:#40507F;" d="M339.78,124.99h-52.96c0.15-15.73,1.12-29.72,3.93-33.19c1.48-1.84,3.25-3.27,5.12-4.38
			c4.33-2.56,9.17-3.42,12.35-3.71c2.11-0.19,3.48-0.12,3.48-0.12s2.83,0.15,6.63,0.72c1.05,0.18,2.11,0.36,3.22,0.58
			c6.47,1.27,11.9,2.46,13.36,3.19C338.24,89.75,339.44,108.45,339.78,124.99z"/>
	</g>
	<g>
		<path d="M325.354,59.165l-19.27,14.59c0,0-10.5-10.54-6.23-16.56c2.65-3.75,8.01-5.55,11.68-6.38c0.42-0.09,0.81-0.17,1.18-0.24
			c1.58-0.31,2.64-0.4,2.64-0.4l0.01,0.06c0.67-0.25,7.35-5.08,11.01-3.48C331.404,48.945,325.354,59.165,325.354,59.165z"/>
	</g>
	<g>
		<g>
			<path style="fill:#A05852;" d="M308.083,76.034l-0.635,10.354c0,0,1.685,3.091,7.711,3.955c4.49,0.644,6.137-0.279,6.137-0.279
				l-0.307-5.282l-0.306-5.152l-10.789-3.077L308.083,76.034z"/>
		</g>
	</g>
	<g>
		<g>
			<path d="M309.893,76.553c0.009,0.284,0.096,0.625,0.24,1.017c1.999,5.314,8.265,6.818,10.856,7.211l-0.306-5.152L309.893,76.553z
				"/>
		</g>
	</g>
	<g>
		<g>
			<path style="fill:#A05852;" d="M324.439,56.172c0,0,4.637,13.315,2.053,20.396c-2.585,7.081-9.091,5.435-12.928,3.732
				c-3.837-1.702-5.482-4.263-5.482-4.263s-3.781,0.966-5.982-2.65s-0.381-7.435,1.793-8.175c2.173-0.74,4.559,0.972,4.559,0.972
				l-1.673-3.894C306.778,62.289,316.492,43.898,324.439,56.172z"/>
		</g>
	</g>
	<g>
		<path d="M307.75,71.837c-0.111,0-0.224-0.037-0.316-0.113l-4.458-3.641c-0.214-0.175-0.245-0.49-0.071-0.704
			c0.176-0.214,0.491-0.245,0.704-0.071l4.458,3.641c0.214,0.175,0.245,0.49,0.071,0.704
			C308.038,71.774,307.895,71.837,307.75,71.837z"/>
	</g>
	<g>
		<path d="M303.501,71.519c-0.234,0-0.443-0.166-0.49-0.405c-0.052-0.271,0.125-0.533,0.396-0.585l3.121-0.603
			c0.268-0.053,0.532,0.124,0.586,0.396c0.052,0.271-0.125,0.533-0.396,0.585l-3.121,0.603
			C303.564,71.516,303.533,71.519,303.501,71.519z"/>
	</g>
	<g>
		<path d="M315.47,61.743c-0.117,0-0.234-0.041-0.329-0.124c-0.208-0.182-0.229-0.497-0.047-0.705
			c1.555-1.776,3.457-1.314,4.247-0.823c0.234,0.146,0.306,0.454,0.16,0.688c-0.146,0.235-0.455,0.305-0.687,0.162
			c-0.165-0.099-1.617-0.913-2.969,0.631C315.747,61.685,315.608,61.743,315.47,61.743z"/>
	</g>
	<g>
		<path d="M325.529,61.318c-0.122,0-0.245-0.045-0.342-0.135c-0.988-0.925-2.125-0.38-2.171-0.357
			c-0.247,0.123-0.546,0.022-0.67-0.224c-0.123-0.246-0.026-0.544,0.218-0.668c0.073-0.037,1.799-0.889,3.307,0.518
			c0.201,0.189,0.212,0.505,0.023,0.707C325.796,61.265,325.663,61.318,325.529,61.318z"/>
	</g>
	<g>
		<path d="M323.182,71.061c-0.057,0-0.115-0.01-0.172-0.03c-0.259-0.095-0.393-0.382-0.298-0.642
			c1.314-3.593-0.397-5.675-0.47-5.762c-0.178-0.21-0.153-0.525,0.056-0.704c0.209-0.178,0.523-0.156,0.703,0.053
			c0.089,0.103,2.175,2.588,0.65,6.757C323.577,70.935,323.386,71.061,323.182,71.061z"/>
	</g>
	<g>
		<path d="M325.177,66.29c-0.231,0-0.439-0.162-0.488-0.398l-0.502-2.414c-0.008-0.034-0.011-0.068-0.011-0.102
			c0-0.232,0.162-0.44,0.398-0.489c0.266-0.052,0.534,0.117,0.591,0.388l0.502,2.415c0.008,0.034,0.011,0.068,0.011,0.102
			c0,0.232-0.162,0.44-0.398,0.489C325.245,66.286,325.211,66.29,325.177,66.29z"/>
	</g>
	<g>
		<path d="M317.613,66.465c-0.232,0-0.44-0.162-0.488-0.398l-0.502-2.414c-0.057-0.27,0.117-0.535,0.388-0.591
			c0.266-0.054,0.534,0.117,0.591,0.388l0.502,2.414c0.057,0.27-0.117,0.535-0.388,0.591
			C317.682,66.462,317.648,66.465,317.613,66.465z"/>
	</g>
	<g>
		<path d="M325.35,59.164c0,0-0.997-2.15-3.578-2.326c-2.582-0.176-4.202,1.55-4.202,1.55s0.866,4.419-2.788,6.514
			c-3.654,2.095-6.332,1.282-6.332,1.282l-2.492-1.064l-1.64-3.837l7.857-7.49l9.847-4.449l4.59,4.711L325.35,59.164z"/>
	</g>
	<g>
		<path d="M320.324,75.026c-0.403,0-2.787-0.102-3.718-2.448c-0.102-0.256,0.023-0.547,0.28-0.649
			c0.258-0.102,0.547,0.024,0.649,0.281c0.733,1.851,2.739,1.824,2.811,1.815c0.283,0,0.506,0.214,0.515,0.485
			c0.008,0.275-0.207,0.505-0.481,0.515C320.372,75.025,320.354,75.026,320.324,75.026z"/>
	</g>
	<g>
		<path style="fill:#FFFFFF;" d="M318.471,91.147c-6.779,0-11.938-4.695-12.188-4.926c-0.202-0.188-0.215-0.503-0.027-0.706
			c0.188-0.203,0.504-0.215,0.707-0.028c0.067,0.063,6.82,6.202,14.681,4.279c0.265-0.066,0.538,0.099,0.604,0.367
			c0.065,0.268-0.099,0.539-0.367,0.604C320.711,91.023,319.568,91.147,318.471,91.147z"/>
	</g>
</g>
<g>
	<g>
		<path style="fill:#E8E1EF;" d="M611.95,158.85v80c0,2.15-1.04,4.06-2.65,5.24c-0.97,0.74-2.18,1.2-3.48,1.28
			c-0.14,0.02-0.28,0.02-0.42,0.02h-79.99c-0.78,0-1.53-0.14-2.22-0.39c-2.53-0.91-4.33-3.32-4.33-6.15v-80
			c0-3.62,2.93-6.55,6.55-6.55h79.99C609.02,152.3,611.95,155.23,611.95,158.85z"/>
	</g>
	<g>
		<path style="fill:#40507F;" d="M549.83,245.39h-24.42c-0.78,0-1.53-0.14-2.22-0.39c6.5-20.07,17.97-38.03,27.24-38.73
			C562.01,206.49,556.46,227.73,549.83,245.39z"/>
	</g>
	<g>
		<path d="M570.592,178.535c0,0,13.345-3.591,23.271,8.566c9.926,12.156,3.758,27.121-11.968,26.691
			c-15.726-0.43-19.382-16.501-19.382-16.501L570.592,178.535z"/>
	</g>
	<g>
		<path style="fill:#40507F;" d="M591.81,241.44c-2.33,1.51-4.81,2.84-7.39,3.95h-39.55c-4.47-1.92-8.6-4.48-12.28-7.56
			c1.01-11.27,3.15-17.05,4.96-19.66c3.81-5.49,7.52-10.78,12.79-11.9c2.81-0.58,5.79-0.89,9.01-1.35
			c4.72-0.66,10.41-0.52,15.5,0.06h0.06c4.98,0.58,7.75,2.14,10.88,3.91C587.67,209.96,590.46,223.77,591.81,241.44z"/>
	</g>
	<g>
		<path style="fill:#92B4EA;" d="M553.421,196.448c-0.558,2.55-2.089,4.381-3.42,4.09c-1.331-0.291-1.957-2.594-1.399-5.144
			c0.558-2.55,2.089-4.381,3.42-4.09C553.353,191.594,553.979,193.898,553.421,196.448z"/>
	</g>
	<g>
		<path style="fill:#40507F;" d="M605.82,245.37c-0.14,0.02-0.28,0.02-0.42,0.02h-24.09l-8.96-40.41c0,0,0.91-0.07,2.5,0h0.06
			C579.9,205.26,598.28,209.14,605.82,245.37z"/>
	</g>
	<g>
		<path d="M550.558,188.54c0,0-3.794-4.034-2.846-10.417c0.643-4.327,2.535-5.76,2.535-5.76s-3.037-5.831,5.673-5.642
			c8.71,0.189,15.846-0.554,19.727,6.938c2.286,4.414,1.376,14.001,1.376,14.001L550.558,188.54z"/>
	</g>
	<g>
		<g>
			<g>
				<g>
					<path style="fill:#C96F6F;" d="M569.801,195.343l-0.062,10.629c0,0-1.935,3.044-8.156,3.513
						c-4.634,0.349-6.087-2.038-6.087-2.038l1.176-9.294l11.242-2.404L569.801,195.343z"/>
				</g>
			</g>
		</g>
	</g>
	<g>
		<g>
			<g>
				<g>
					<path d="M569.789,194.695c-0.029,0.29-0.141,0.632-0.315,1.024c-2.409,5.296-10.792,7.456-13.469,7.68l0.667-5.246
						L569.789,194.695z"/>
				</g>
			</g>
		</g>
	</g>
	<g>
		<g>
			<g>
				<g>
					<path style="fill:#C96F6F;" d="M554.444,173.912c0,0-5.656,13.294-3.5,20.711c2.156,7.417,8.92,6.181,12.961,4.704
						c4.04-1.477,5.898-3.981,5.898-3.981s3.799,1.247,6.298-2.299c2.499-3.546,0.9-7.575-1.271-8.481
						c-2.171-0.906-4.728,0.68-4.728,0.68l1.978-3.867C572.081,181.38,563.413,161.91,554.444,173.912z"/>
				</g>
			</g>
		</g>
	</g>
	<g>
		<g>
			<g>
				<g>
					<path d="M570.102,185.246c0,0-5.67,1.258-9.746-5c-4.076-6.258-3.763-8.866-3.763-8.866l-3.814,6.615
						c0,0-0.968-4.517,0.79-7.442s3.652-2.362,3.652-2.362l12.61,2.894l3.498,9.996L570.102,185.246z"/>
				</g>
			</g>
		</g>
	</g>
	<g>
		<path d="M555.211,190.805c-0.21,0-0.406-0.134-0.476-0.344c-0.934-2.853,1.034-5.794,1.119-5.918
			c0.155-0.227,0.466-0.286,0.693-0.132c0.229,0.155,0.288,0.466,0.134,0.694c-0.018,0.026-1.775,2.665-0.995,5.045
			c0.086,0.263-0.058,0.545-0.32,0.631C555.315,190.797,555.263,190.805,555.211,190.805z"/>
	</g>
	<g>
		<path d="M570.76,191.523c-0.12,0-0.241-0.043-0.337-0.131c-0.204-0.186-0.219-0.502-0.032-0.707l3.533-3.869
			c0.187-0.204,0.503-0.218,0.706-0.032c0.204,0.186,0.219,0.503,0.032,0.707l-3.533,3.869
			C571.03,191.469,570.896,191.523,570.76,191.523z"/>
	</g>
	<g>
		<path d="M574.55,190.44c-0.022,0-0.045-0.001-0.067-0.004l-2.493-0.336c-0.274-0.037-0.466-0.289-0.429-0.563
			c0.036-0.274,0.292-0.466,0.562-0.429l2.493,0.336c0.274,0.037,0.466,0.289,0.429,0.563
			C575.011,190.258,574.796,190.44,574.55,190.44z"/>
	</g>
	<g>
		<path d="M552.453,180.014c-0.234,0-0.443-0.166-0.49-0.405c-0.052-0.271,0.125-0.534,0.396-0.586l2.343-0.454
			c0.259-0.053,0.532,0.124,0.586,0.395c0.052,0.271-0.125,0.534-0.397,0.586l-2.343,0.454
			C552.518,180.011,552.485,180.014,552.453,180.014z"/>
	</g>
	<g>
		<path d="M562.254,181.369c-0.073,0-0.148-0.016-0.217-0.05l-3.893-1.878c-0.249-0.12-0.354-0.419-0.233-0.668
			c0.12-0.25,0.422-0.352,0.667-0.233l3.893,1.878c0.249,0.12,0.354,0.419,0.233,0.667
			C562.618,181.265,562.44,181.369,562.254,181.369z"/>
	</g>
	<g>
		<path d="M552.559,185.447c-0.045,0-0.092-0.006-0.138-0.019c-0.266-0.076-0.419-0.353-0.343-0.619l0.613-2.146l-0.577-0.68
			c-0.179-0.21-0.153-0.526,0.057-0.705c0.213-0.179,0.527-0.152,0.705,0.057l0.751,0.884c0.108,0.128,0.146,0.3,0.1,0.461
			l-0.688,2.403C552.977,185.304,552.776,185.447,552.559,185.447z"/>
	</g>
	<g>
		<path d="M559.257,185.96c-0.045,0-0.092-0.006-0.138-0.02c-0.266-0.076-0.419-0.353-0.343-0.618l0.612-2.139l-0.854-0.958
			c-0.184-0.206-0.166-0.522,0.04-0.706c0.207-0.184,0.523-0.165,0.706,0.041l1.037,1.164c0.114,0.128,0.155,0.305,0.107,0.47
			l-0.689,2.403C559.675,185.817,559.475,185.96,559.257,185.96z"/>
	</g>
	<g>
		<path d="M557.133,194.256c-0.318,0-0.631-0.066-0.928-0.222c-0.245-0.128-0.34-0.43-0.212-0.675
			c0.13-0.244,0.435-0.338,0.675-0.211c1.029,0.536,2.922-1.101,3.503-1.719c0.19-0.201,0.506-0.211,0.707-0.021
			c0.201,0.189,0.211,0.505,0.021,0.706C560.662,192.368,558.83,194.256,557.133,194.256z"/>
	</g>
	<g>
		<path style="fill:#C96F6F;" d="M555.904,205.25l-4.892,0.891c0,0-0.105,7.71,9.892,8.223c10.368,0.532,15.204-9.267,15.204-9.267
			l-9.377-1.061L555.904,205.25z"/>
	</g>
	<g>
		<path style="fill:#92B4EA;" d="M574.988,197.044c0.162,2.605-0.809,4.786-2.169,4.87c-1.359,0.085-2.593-1.959-2.755-4.564
			c-0.162-2.605,0.809-4.786,2.169-4.87C573.593,192.395,574.826,194.439,574.988,197.044z"/>
	</g>
	<g>
		<path style="fill:#92B4EA;" d="M545.407,241.589c-0.133,0-0.266-0.053-0.363-0.157c-9.192-9.746-1.468-19.643-1.389-19.742
			c0.172-0.214,0.488-0.249,0.702-0.078c0.216,0.173,0.251,0.487,0.079,0.703c-0.3,0.376-7.253,9.326,1.334,18.432
			c0.19,0.2,0.181,0.517-0.021,0.706C545.653,241.544,545.53,241.589,545.407,241.589z"/>
	</g>
</g>
<g>
	<g>
		<path style="fill:#E8E1EF;" d="M611.95,279.21v80c0,1.94-0.84,3.69-2.19,4.88c-0.9,0.82-2.04,1.38-3.3,1.58
			c-0.34,0.06-0.7,0.09-1.06,0.09h-79.99c-1.39,0-2.69-0.43-3.74-1.18c-1.7-1.18-2.81-3.14-2.81-5.37v-80
			c0-3.61,2.93-6.54,6.55-6.54h79.99C609.02,272.67,611.95,275.6,611.95,279.21z"/>
	</g>
	<g>
		<path d="M557.271,300.124c0,0-8.337-6.665-4.541-12.188c3.796-5.523,11.933,0.096,11.933,0.096s3.171-3.171,7.655-0.605
			c4.485,2.566,4.997,8.825,4.997,8.825s4.568-0.104,4.83,5.455c0.261,5.559-5.722,10.509-5.722,10.509L557.271,300.124z"/>
	</g>
	<g>
		<path style="fill:#6876AA;" d="M598.36,361.73c-1.69,1.45-3.46,2.8-5.32,4.03h-54.51l-0.59-34.72
			c13.93-10.06,27.45-7.55,27.45-7.55s17.75-2.08,27.02,6.64c1.35,1.28,2.5,2.74,3.4,4.47
			C597.29,337.45,598.02,348.88,598.36,361.73z"/>
	</g>
	<g>
		<g>
			<path style="fill:#F48462;" d="M571.905,315.275l0.105,10.593c0,0-1.88,3.064-8.073,3.629c-4.613,0.421-6.245-0.607-6.245-0.607
				l0.591-5.371l0.583-5.238l11.166-2.572L571.905,315.275z"/>
		</g>
	</g>
	<g>
		<g>
			<path d="M570.032,315.709c-0.024,0.29-0.13,0.632-0.298,1.025c-2.318,5.315-8.787,6.52-11.451,6.785l0.583-5.238L570.032,315.709
				z"/>
		</g>
	</g>
	<g>
		<g>
			<path style="fill:#F48462;" d="M556.265,294.159c0,0-5.428,13.337-3.163,20.694c2.265,7.358,8.987,6.02,12.99,4.485
				c4.003-1.535,5.815-4.06,5.815-4.06s3.806,1.184,6.241-2.389c2.435-3.573,0.778-7.563-1.4-8.432
				c-2.178-0.869-4.701,0.752-4.701,0.752l1.911-3.884C573.958,301.324,565.014,282.058,556.265,294.159z"/>
		</g>
	</g>
	<g>
		<path d="M572.491,311.002c-0.153,0-0.305-0.07-0.403-0.204c-0.163-0.223-0.115-0.535,0.107-0.699l4.738-3.479
			c0.221-0.162,0.534-0.117,0.699,0.107c0.163,0.223,0.115,0.535-0.107,0.699l-4.738,3.479
			C572.698,310.971,572.595,311.002,572.491,311.002z"/>
	</g>
	<g>
		<path d="M576.84,310.899c-0.039,0-0.079-0.005-0.12-0.015l-3.15-0.777c-0.268-0.066-0.432-0.337-0.365-0.605
			c0.065-0.267,0.329-0.432,0.606-0.365l3.15,0.777c0.268,0.066,0.432,0.337,0.365,0.605
			C577.27,310.747,577.065,310.899,576.84,310.899z"/>
	</g>
	<g>
		<path d="M565.189,299.736c-0.057,0-0.114-0.01-0.171-0.03c-0.783-0.285-3.036-0.411-3.839-0.436
			c-0.275-0.009-0.492-0.239-0.484-0.516c0.009-0.271,0.23-0.484,0.5-0.484c0.327,0.01,3.09,0.103,4.165,0.496
			c0.26,0.095,0.393,0.382,0.299,0.641C565.584,299.61,565.393,299.736,565.189,299.736z"/>
	</g>
	<g>
		<path d="M554.908,299.34c-0.241,0-0.454-0.176-0.493-0.422c-0.043-0.273,0.144-0.529,0.416-0.572
			c1.399-0.22,1.818-0.2,1.891-0.194c0.275,0.023,0.478,0.266,0.455,0.541c-0.023,0.272-0.261,0.477-0.532,0.456
			c-0.03-0.002-0.4-0.012-1.657,0.186C554.961,299.338,554.935,299.34,554.908,299.34z"/>
	</g>
	<g>
		<path d="M557.604,311.123c-0.214,0-0.411-0.138-0.477-0.352c-1.323-4.286,0.883-7.37,0.977-7.499
			c0.162-0.222,0.473-0.274,0.697-0.108c0.223,0.162,0.271,0.475,0.11,0.697c-0.021,0.028-1.999,2.824-0.83,6.615
			c0.082,0.264-0.066,0.544-0.33,0.625C557.702,311.116,557.652,311.123,557.604,311.123z"/>
	</g>
	<g>
		<path d="M555.007,304.43c-0.042,0-0.084-0.005-0.127-0.017c-0.268-0.07-0.427-0.344-0.357-0.61l0.64-2.436
			c0.07-0.268,0.34-0.432,0.61-0.356c0.268,0.07,0.427,0.344,0.357,0.61l-0.64,2.437C555.432,304.281,555.229,304.43,555.007,304.43
			z"/>
	</g>
	<g>
		<path d="M561.712,304.494c-0.042,0-0.084-0.005-0.127-0.017c-0.268-0.07-0.427-0.344-0.357-0.61l0.64-2.436
			c0.069-0.268,0.34-0.429,0.61-0.357c0.268,0.07,0.427,0.344,0.357,0.61l-0.64,2.436
			C562.137,304.346,561.934,304.494,561.712,304.494z"/>
	</g>
	<g>
		<path d="M555.179,297.163c0,0,1.129-2.141,3.772-2.185c2.642-0.044,4.204,1.802,4.204,1.802s-1.115,4.461,2.502,6.79
			c3.617,2.328,6.391,1.64,6.391,1.64l2.597-0.955l1.874-3.827l-7.62-8.051l-9.81-5.055l-4.928,4.564L555.179,297.163z"/>
	</g>
	<g>
		<path d="M559.642,313.598c-0.127,0-0.207-0.006-0.225-0.008c-0.274-0.023-0.477-0.265-0.454-0.539
			c0.022-0.274,0.267-0.48,0.538-0.457c0.089,0.01,2.126,0.143,2.973-1.711c0.115-0.25,0.413-0.359,0.663-0.247
			c0.251,0.115,0.361,0.412,0.247,0.663C562.417,313.415,560.333,313.598,559.642,313.598z"/>
	</g>
	<g>
		<path style="fill:#F7B369;" d="M558.283,323.519c0,0-2.185,2.317-3.486,6.59c-0.739,2.424-0.557,6.001-0.048,6.005
			c0.509,0.004,4.323-5.898,6.756-6.257s4.469,6.706,5.508,6.954c1.039,0.248,5.078-2.533,6.512-6.558
			c1.433-4.025-1.138-6.62-1.138-6.62S559.827,333.164,558.283,323.519z"/>
	</g>
	<g>
		<path style="fill:#6876AA;" d="M548.53,365.76h-23.12c-1.39,0-2.69-0.43-3.74-1.18c7.48-25.92,16.27-33.54,16.27-33.54
			L548.53,365.76z"/>
	</g>
	<g>
		<path style="fill:#6876AA;" d="M609.76,364.09c-0.9,0.82-2.04,1.38-3.3,1.58c-0.34,0.06-0.7,0.09-1.06,0.09h-17.81l7.46-32.76
			c0,0,5.62,7.82,12,24.67C607.84,359.63,608.8,361.88,609.76,364.09z"/>
	</g>
	<g>
		<path style="fill:#F7B369;" d="M539.731,365.195c-0.018,0-0.035-0.001-0.052-0.003c-0.275-0.028-0.475-0.273-0.446-0.548
			l0.982-9.541c0.028-0.276,0.295-0.478,0.548-0.446c0.275,0.028,0.475,0.273,0.446,0.548l-0.981,9.541
			C540.2,365.004,539.983,365.195,539.731,365.195z"/>
	</g>
</g>
<g>
	<g>
		<path style="fill:#E8E1EF;" d="M363.32,158.85v80c0,2.93-1.93,5.41-4.58,6.25c-0.14,0.04-0.26,0.07-0.39,0.1
			c-0.5,0.13-1.03,0.19-1.57,0.19h-80c-0.17,0-0.33-0.01-0.49-0.02c-3.39-0.25-6.06-3.08-6.06-6.52v-80c0-3.62,2.93-6.55,6.55-6.55
			h80C360.39,152.3,363.32,155.23,363.32,158.85z"/>
	</g>
	<g>
		<path style="fill:#92B4EA;" d="M358.35,245.2c-0.5,0.13-1.03,0.19-1.57,0.19H337.9c-0.64-1.51-1.27-2.7-1.84-2.44
			c-0.45,0.21-0.91,0.41-1.38,0.6c-2.59-18.01,3.54-31.72,3.54-31.72S350.51,222.58,358.35,245.2z"/>
	</g>
	<g>
		<path d="M317.871,194.101h-10.92l-10.847,29.136l41.684-3.099c0,0,2.473-13.017-4.342-25.258
			C326.63,182.639,317.871,194.101,317.871,194.101z"/>
	</g>
	<g>
		<g>
			<g>
				<path d="M316.53,183.25l-14.69,35.83c0,0-7.29,13.97-14.11,26.31h-10.95c-0.17,0-0.33-0.01-0.49-0.02
					c-3.39-0.25-6.06-3.08-6.06-6.52v-17.97c1.4-1.51,2.66-2.63,3.32-3.01c7.85-4.56,11.51-0.55,14.81-4.29
					c4.4-4.96-0.66-8.31,1.69-14.98c2.41-6.8,7.58-6.66,12.33-9.42c4.39-2.53,4.96-8.26,5.45-10.55
					C308.09,177.39,316.53,183.25,316.53,183.25z"/>
			</g>
		</g>
	</g>
	<g>
		<path d="M308.284,181.796c-0.447-0.991-0.62-2.09-0.452-3.165c0.179-1.147,0.529-2.376,0.783-3.051
			c1.258-3.334,4.832-9.503,13.896-8.592c12.332,1.24,10.935,23.379,10.935,23.379l-22.053-1.684L308.284,181.796z"/>
	</g>
	<g>
		<path style="fill:#F7B369;" d="M347.01,245.39H296.2c-0.35-0.19-0.71-0.39-1.06-0.59c-0.77-0.42-1.53-0.88-2.27-1.37
			c-0.31-0.2-0.62-0.4-0.91-0.62c0.93-10.37,2.96-19.74,6.89-25.06c3.68-4.95,7.78-8.13,11.62-10.16
			c7.98-4.21,14.94-3.51,14.94-3.51c11.8,1.57,18.23,14.6,19.74,22.95C345.43,228.57,346.49,238.54,347.01,245.39z"/>
	</g>
	<g>
		<g>
			<g>
				<g>
					<g>
						<path style="fill:#F48462;" d="M329.178,210.376c0,0-0.688,1.339-4.723,0.967c-6.211-0.576-8.201-3.347-8.201-3.347
							l-0.279-10.599l1.897,0.372l11.25,2.176l0.018,5.169L329.178,210.376z"/>
					</g>
				</g>
			</g>
		</g>
	</g>
	<g>
		<g>
			<g>
				<g>
					<g>
						<path d="M329.141,205.114c-2.956-0.298-8.628-1.525-10.934-6.341c-0.186-0.372-0.297-0.725-0.335-1.004l11.25,2.176
							L329.141,205.114z"/>
					</g>
				</g>
			</g>
		</g>
	</g>
	<g>
		<g>
			<g>
				<g>
					<g>
						<path style="fill:#F48462;" d="M330.88,175.74c0,0,5.893,13.144,3.887,20.579c-2.007,7.435-8.774,6.333-12.83,4.938
							c-4.056-1.395-5.956-3.856-5.956-3.856s-3.763,1.316-6.323-2.171c-2.559-3.487-1.043-7.534,1.104-8.479
							c2.147-0.945,4.726,0.587,4.726,0.587l-2.046-3.816C313.443,183.523,321.71,163.948,330.88,175.74z"/>
					</g>
				</g>
			</g>
		</g>
	</g>
	<g>
		<path d="M332.82,186.906c-0.243,0-0.457-0.179-0.494-0.427l-0.36-2.453c-0.02-0.143,0.022-0.288,0.114-0.397l0.984-1.154
			c0.181-0.211,0.497-0.234,0.705-0.056c0.21,0.179,0.235,0.495,0.057,0.704l-0.838,0.982l0.328,2.229
			c0.04,0.273-0.149,0.527-0.423,0.567C332.869,186.905,332.845,186.906,332.82,186.906z"/>
	</g>
	<g>
		<path d="M323.229,182.778c-0.077,0-0.155-0.018-0.228-0.056c-0.246-0.126-0.343-0.428-0.216-0.673
			c0.923-1.793,3.185-1.327,3.279-1.305c0.27,0.059,0.44,0.323,0.383,0.593c-0.057,0.27-0.32,0.44-0.593,0.385
			c-0.064-0.015-1.61-0.323-2.181,0.785C323.584,182.679,323.409,182.778,323.229,182.778z"/>
	</g>
	<g>
		<path d="M332.641,181.258c-0.159,0-0.315-0.076-0.413-0.218c-0.095-0.137-0.439-0.526-0.768-0.526
			c-0.272,0.001-0.524,0.287-0.688,0.526c-0.157,0.229-0.469,0.287-0.695,0.13c-0.228-0.156-0.286-0.467-0.131-0.695
			c0.438-0.638,0.946-0.962,1.514-0.962c0.916,0.001,1.528,0.865,1.596,0.963c0.154,0.229,0.096,0.54-0.133,0.694
			C332.836,181.23,332.737,181.258,332.641,181.258z"/>
	</g>
	<g>
		<g>
			<g>
				<g>
					<g>
						<path d="M315.489,187.34c0,0,5.775,0.155,9.718-6.162c3.943-6.316,3.482-7.92,3.482-7.92l3.929,6.521
							c0,0,0.878-4.521-0.93-7.404c-1.808-2.882-3.686-2.285-3.686-2.285l-12.515,3.127l-3.296,10.031L315.489,187.34z"/>
					</g>
				</g>
			</g>
		</g>
	</g>
	<g>
		<path d="M325.52,187.492c-0.248,0-0.463-0.184-0.495-0.437l-0.314-2.46c-0.02-0.156,0.035-0.314,0.149-0.423l1.269-1.223
			c0.198-0.192,0.515-0.186,0.707,0.013c0.191,0.199,0.186,0.516-0.014,0.707l-1.088,1.049l0.282,2.21
			c0.035,0.274-0.159,0.524-0.433,0.559C325.563,187.491,325.541,187.492,325.52,187.492z"/>
	</g>
	<g>
		<path d="M331.5,191.765c-0.273,0-0.496-0.219-0.5-0.493c-0.036-2.551-1.55-5.879-1.565-5.912
			c-0.115-0.251-0.005-0.548,0.246-0.663c0.248-0.115,0.547-0.006,0.662,0.246c0.066,0.144,1.617,3.555,1.656,6.314
			c0.004,0.276-0.217,0.503-0.493,0.507C331.505,191.765,331.502,191.765,331.5,191.765z"/>
	</g>
	<g>
		<path d="M328.363,196.776c-0.06,0-0.12-0.002-0.183-0.007c-1.74-0.124-2.65-2.389-2.688-2.485
			c-0.066-0.168-0.037-0.359,0.077-0.499c0.114-0.14,0.297-0.206,0.473-0.177l4.517,0.775c0.158,0.027,0.294,0.129,0.365,0.274
			c0.07,0.145,0.066,0.315-0.011,0.457C330.876,195.184,329.994,196.776,328.363,196.776z M326.889,194.768
			c0.335,0.485,0.811,0.964,1.363,1.004c0.561,0.04,1.005-0.249,1.313-0.545L326.889,194.768z"/>
	</g>
	<g>
		<path d="M315.009,192.901c-0.13,0-0.261-0.051-0.358-0.151l-3.616-3.719c-0.192-0.198-0.189-0.515,0.01-0.707
			c0.199-0.191,0.515-0.188,0.707,0.01l3.616,3.719c0.192,0.198,0.189,0.515-0.01,0.707
			C315.26,192.854,315.135,192.901,315.009,192.901z"/>
	</g>
	<g>
		<path d="M310.67,192.901c-0.206,0-0.399-0.128-0.472-0.334c-0.092-0.26,0.045-0.546,0.306-0.637l3.233-1.136
			c0.262-0.092,0.546,0.045,0.638,0.306c0.092,0.26-0.045,0.546-0.306,0.637l-3.233,1.136
			C310.781,192.892,310.725,192.901,310.67,192.901z"/>
	</g>
	<g>
		<path style="fill:#FFFFFF;" d="M326.016,211.932c-6.403,0-9.935-3.403-10.113-3.58c-0.196-0.194-0.198-0.51-0.004-0.706
			c0.194-0.197,0.512-0.199,0.706-0.006c0.051,0.049,5.109,4.893,13.971,2.718c0.272-0.064,0.54,0.099,0.604,0.366
			c0.066,0.269-0.098,0.539-0.366,0.604C329.07,211.756,327.469,211.932,326.016,211.932z"/>
	</g>
	<g>
		<path style="fill:#92B4EA;" d="M313.2,236.94c-1.09,3.42-2.67,6.2-4.49,8.45h-4.52l-0.75-0.21c-0.04-0.01-0.07-0.02-0.11-0.03
			c-1.28-0.39-2.56-0.83-3.79-1.33c-0.04-0.02-0.08-0.03-0.12-0.05c-0.88-0.35-1.75-0.73-2.6-1.14c-0.57-0.26-1.13-0.54-1.68-0.84
			c-0.77-0.39-1.53-0.82-2.27-1.27c-0.31-0.18-0.62-0.37-0.91-0.57c0.93-9.61,2.96-18.29,6.89-23.21c3.68-4.59,7.78-7.53,11.62-9.41
			C312.9,212.71,317.13,224.68,313.2,236.94z"/>
	</g>
	<g>
		<path style="fill:#92B4EA;" d="M306.8,209.43l-2.99,35.96h-24.8c0.73-2.59,2.54-7.25,5.05-11.67
			C292.26,218.45,306.8,209.43,306.8,209.43z"/>
	</g>
</g>
<g>
	<g>
		<path style="fill:#E8E1EF;" d="M114.69,158.85v80c0,0.46-0.05,0.92-0.14,1.36c-0.63,2.96-3.26,5.18-6.4,5.18h-80
			c-0.24,0-0.48-0.01-0.71-0.04c-3.29-0.35-5.84-3.13-5.84-6.5v-80c0-3.62,2.93-6.55,6.55-6.55h80
			C111.76,152.3,114.69,155.23,114.69,158.85z"/>
	</g>
	<g>
		<path style="fill:#A37B90;" d="M101.86,245.39H28.15c-0.24,0-0.48-0.01-0.71-0.04c5.29-13.52,12.96-25.83,20.11-28.71
			c0,0,10.57-2.9,11.16-2.92c16.83-0.65,25.79,6.03,26.31,6.43C85.07,220.18,95.72,230.53,101.86,245.39z"/>
	</g>
	<g>
		<path d="M61.815,190.966c0,0,3.812-0.942,5.599-3.136c1.787-2.194,2.081-7.621,2.081-7.621s6.903,3.591,8.717,3.192
			c1.814-0.399,5.37-8.527,2.975-12.038c-2.395-3.511-7.242,0.836-7.242,0.836s-0.995-5.016-6.294-3.845
			c-6.221,1.374-7.83,7.691-7.83,7.691s-0.418-6.855-4.746-3.845s-2.77,10.867-2.77,10.867s-3.462,1.502-2.77,4.764
			c0.692,3.261,5.367,6.401,5.367,6.401L61.815,190.966z"/>
	</g>
	<g>
		<g>
			<path style="fill:#F48462;" d="M61.197,200.806l-0.907,10.336c0,0,1.669,3.129,7.887,4.133c4.632,0.748,6.36-0.136,6.36-0.136
				l-0.191-5.288l-0.193-5.157l-11.095-3.327L61.197,200.806z"/>
		</g>
	</g>
	<g>
		<g>
			<path d="M63.058,201.366c0.002,0.285,0.084,0.627,0.224,1.023c1.942,5.359,8.391,7.008,11.064,7.462l-0.193-5.157L63.058,201.366
				z"/>
		</g>
	</g>
	<g>
		<g>
			<path style="fill:#F48462;" d="M78.607,181.329c0,0,4.48,13.419,1.633,20.438c-2.846,7.019-9.541,5.222-13.473,3.43
				c-3.931-1.791-5.573-4.389-5.573-4.389s-3.938,0.878-6.129-2.789c-2.192-3.667-0.215-7.442,2.053-8.131
				c2.268-0.689,4.696,1.078,4.696,1.078l-1.638-3.932C60.176,187.034,70.676,168.874,78.607,181.329z"/>
		</g>
	</g>
	<g>
		<path d="M60.965,196.602c-0.112,0-0.225-0.038-0.318-0.115l-4.528-3.743c-0.213-0.176-0.243-0.491-0.067-0.704
			c0.175-0.212,0.491-0.244,0.704-0.067l4.528,3.743c0.213,0.176,0.243,0.491,0.067,0.704
			C61.252,196.54,61.109,196.602,60.965,196.602z"/>
	</g>
	<g>
		<path d="M69.28,187.021c-0.124,0-0.248-0.045-0.344-0.137c-0.2-0.19-0.209-0.507-0.019-0.707c1.639-1.728,3.582-1.227,4.38-0.721
			c0.233,0.148,0.303,0.456,0.155,0.69c-0.147,0.232-0.455,0.301-0.688,0.156c-0.076-0.046-1.653-0.984-3.122,0.564
			C69.544,186.969,69.412,187.021,69.28,187.021z"/>
	</g>
	<g>
		<path d="M79.624,186.499c-0.123,0-0.247-0.045-0.343-0.137c-1.016-0.96-2.221-0.433-2.272-0.411
			c-0.251,0.115-0.547,0.003-0.661-0.248c-0.114-0.25-0.007-0.545,0.243-0.661c0.075-0.034,1.861-0.84,3.377,0.592
			c0.201,0.189,0.21,0.506,0.02,0.707C79.889,186.446,79.756,186.499,79.624,186.499z"/>
	</g>
	<g>
		<path d="M76.065,196.185c-0.063,0-0.126-0.012-0.188-0.037c-0.255-0.104-0.379-0.396-0.275-0.652
			c1.401-3.447-0.198-4.688-0.267-4.739c-0.22-0.163-0.27-0.475-0.109-0.697c0.161-0.221,0.468-0.275,0.69-0.117
			c0.096,0.067,2.33,1.704,0.612,5.93C76.449,196.067,76.262,196.185,76.065,196.185z"/>
	</g>
	<g>
		<path d="M79.139,191.461c-0.235,0-0.445-0.167-0.491-0.406l-0.462-2.425c-0.052-0.271,0.127-0.533,0.397-0.585
			c0.276-0.049,0.533,0.127,0.585,0.397l0.462,2.425c0.052,0.271-0.126,0.533-0.397,0.585
			C79.202,191.458,79.17,191.461,79.139,191.461z"/>
	</g>
	<g>
		<path d="M71.385,191.461c-0.235,0-0.445-0.167-0.491-0.406l-0.462-2.425c-0.052-0.271,0.126-0.533,0.397-0.585
			c0.275-0.049,0.534,0.127,0.585,0.397l0.462,2.425c0.052,0.271-0.126,0.533-0.397,0.585
			C71.448,191.458,71.416,191.461,71.385,191.461z"/>
	</g>
	<g>
		<path d="M73.939,200.083c-0.224,0-2.87-0.054-3.816-2.528c-0.099-0.258,0.03-0.547,0.288-0.645
			c0.256-0.098,0.547,0.03,0.646,0.288c0.711,1.858,2.766,1.886,2.883,1.886c0.279,0,0.503,0.222,0.505,0.497
			c0.002,0.275-0.218,0.501-0.494,0.503C73.947,200.083,73.943,200.083,73.939,200.083z"/>
	</g>
	<g>
		<path d="M61.815,190.966c0,0,4.088-0.711,5.599-4.055c1.511-3.344,1.289-6.353,1.289-6.353s2.064,2.262,5.644,1.883
			c3.58-0.379,4.563-4.057,4.563-4.057l-3.281-3.845c0,0-13.479,2.844-13.814,2.425c-0.335-0.419-5.239,8.324-5.239,8.324
			L61.815,190.966z"/>
	</g>
	<g>
		<path style="fill:#A37B90;" d="M88.64,245.39H39.47c1.89-12.09,4.9-25.99,6.35-27.09c0.35-0.25,1.76-1.66,1.76-1.66
			c2.04-1.12,4.63-1.68,6.79-1.96c0.15-0.02,0.28-0.05,0.43-0.06c0.22-0.03,0.44-0.05,0.66-0.07c0.2-0.02,0.41-0.03,0.61-0.05
			c0.29-0.02,0.57-0.04,0.82-0.05c1.11-0.07,1.81-0.06,1.81-0.06s0-0.02,0.01-0.08c0.05-0.71,0.49-6.24,1.85-6.12
			c1.44,0.14,4.94,2.8,8.64,3.14c3.71,0.33,5.69-0.04,6.43-0.04c0.75,0,0.9,4.38,0.9,4.38s4.97,1.87,8.49,5.76
			c0.05,0.03,0.08,0.08,0.11,0.12c0.17,0.2,0.57,0.69,1.16,1.44c0.45,0.63,0.84,1.28,1.17,1.99
			C88.45,227.12,88.73,235.4,88.64,245.39z"/>
	</g>
	<g>
		<path style="fill:#FFFFFF;" d="M66.552,215.938c-3.431,0-7.807-1.597-8.024-1.677c-0.259-0.095-0.392-0.383-0.296-0.642
			c0.096-0.259,0.384-0.392,0.642-0.296c0.06,0.021,6.034,2.203,9.189,1.465c0.268-0.061,0.537,0.105,0.6,0.374
			c0.063,0.269-0.104,0.538-0.374,0.601C67.762,215.885,67.173,215.938,66.552,215.938z"/>
	</g>
	<g>
		<path d="M56.576,196.51c-0.179,0-0.352-0.096-0.441-0.264c-0.13-0.244-0.038-0.547,0.205-0.677l2.599-1.389
			c0.245-0.129,0.547-0.039,0.677,0.205c0.13,0.244,0.038,0.547-0.205,0.677l-2.599,1.389
			C56.736,196.491,56.656,196.51,56.576,196.51z"/>
	</g>
	<g>
		<path style="fill:#6876AA;" d="M71.946,194.279h-2.307c-1.581,0-2.867-1.287-2.867-2.868v-2.393c0-0.758,0.617-1.375,1.375-1.375
			h5.29c0.758,0,1.376,0.617,1.376,1.375v2.393C74.813,192.993,73.527,194.279,71.946,194.279z M68.147,188.644
			c-0.207,0-0.375,0.168-0.375,0.375v2.393c0,1.03,0.837,1.868,1.867,1.868h2.307c1.03,0,1.867-0.838,1.867-1.868v-2.393
			c0-0.207-0.169-0.375-0.376-0.375H68.147z"/>
	</g>
	<g>
		<path style="fill:#6876AA;" d="M80.898,194.399h-1.57c-1.471,0-2.668-1.197-2.668-2.668v-2.666c0-0.718,0.584-1.302,1.301-1.302
			h4.303c0.718,0,1.302,0.584,1.302,1.302v2.666C83.566,193.202,82.37,194.399,80.898,194.399z M77.962,188.764
			c-0.166,0-0.301,0.135-0.301,0.302v2.666c0,0.92,0.748,1.668,1.668,1.668h1.57c0.92,0,1.668-0.748,1.668-1.668v-2.666
			c0-0.167-0.135-0.302-0.302-0.302H77.962z"/>
	</g>
	<g>
		<path style="fill:#6876AA;" d="M73.535,191.461c-0.183,0-0.358-0.1-0.447-0.273c-0.125-0.246-0.028-0.546,0.218-0.671
			c0.082-0.042,2.037-1.022,4.043-0.208c0.256,0.104,0.379,0.396,0.275,0.652c-0.104,0.255-0.397,0.378-0.652,0.275
			c-1.57-0.641-3.195,0.164-3.212,0.172C73.688,191.444,73.611,191.461,73.535,191.461z"/>
	</g>
	<g>
		<path style="fill:#6876AA;" d="M57.864,190.249c-0.198,0-0.386-0.119-0.464-0.314c-0.103-0.256,0.021-0.547,0.278-0.65
			c5.339-2.143,9.635-0.074,9.816,0.016c0.247,0.123,0.348,0.421,0.227,0.669c-0.122,0.247-0.422,0.349-0.669,0.228
			c-0.04-0.02-4.092-1.953-9.001,0.015C57.989,190.237,57.926,190.249,57.864,190.249z"/>
	</g>
</g>
<g>
	<g>
		<path style="fill:#E8E1EF;" d="M239,279.21v80c0,2.16-1.04,4.08-2.65,5.27c-0.51,0.38-1.08,0.68-1.69,0.9
			c-0.52,0.19-1.08,0.31-1.65,0.36c-0.18,0.01-0.36,0.02-0.55,0.02h-80c-0.46,0-0.9-0.05-1.33-0.14c-0.68-0.14-1.32-0.38-1.9-0.72
			c-0.43-0.24-0.82-0.53-1.18-0.86c-1.31-1.19-2.13-2.92-2.13-4.83v-80c0-3.61,2.93-6.54,6.54-6.54h80
			C236.07,272.67,239,275.6,239,279.21z"/>
	</g>
	<g>
		<path d="M224.69,347.595c0,0,7.622-2.294,5.304-13.438c-2-9.615-14.59-11.078-14.59-11.078s3.962-5.945,0.924-13.138
			c-2.917-6.906-6.979-8.217-6.979-8.217s0.346-5.598-4.066-9.991c-4.412-4.393-10.424,0.209-10.424,0.209
			s-11.405-2.483-18.442,3.573c-7.037,6.056-4.312,16.479-4.312,16.479s-11.203,4.045-13.928,15.887
			c-2.725,11.842,4.337,18.201,4.337,18.201L224.69,347.595z"/>
	</g>
	<g>
		<path style="fill:#F7B369;" d="M233.01,365.74c-0.18,0.01-0.36,0.02-0.55,0.02h-80c-0.46,0-0.9-0.05-1.33-0.14
			c-0.68-0.14-1.32-0.38-1.9-0.72c-0.43-0.24-0.82-0.53-1.18-0.86c3.9-9.16,10.7-22.4,17.96-27.87c12.04-9.1,15.2-10.75,34.41-8.72
			C212.76,328.75,225.8,343.54,233.01,365.74z"/>
	</g>
	<g>
		<g>
			<g>
				<g>
					<path style="fill:#F48462;" d="M186.306,321.158l-0.492,7.784c0,0,2.791,2.666,6.545,2.938
						c5.069,0.366,7.102-2.311,7.102-2.311l0.436-10.251L186.306,321.158z"/>
				</g>
			</g>
		</g>
	</g>
	<g>
		<g>
			<g>
				<g>
					<path d="M186.307,321.147c0,0,2.104,7.552,8.42,5.97c4.561-1.142,5.106-6.969,5.106-6.969L186.307,321.147z"/>
				</g>
			</g>
		</g>
	</g>
	<g>
		<g>
			<g>
				<g>
					<path style="fill:#F48462;" d="M203.257,299.838c0,0,1.919,14.081-2.979,20.499c-4.898,6.419-10.676,4.137-13.203,1.962
						c-3.408-2.933-3.928-6.77-3.928-6.77s-4.947,0.704-6.358-3.376c-1.482-4.285,1.751-7.499,4.209-7.564
						c2.458-0.065,2.719,0.397,2.719,0.397l-0.471-4.516C183.248,300.471,199.037,284.757,203.257,299.838z"/>
				</g>
			</g>
		</g>
	</g>
	<g>
		<g>
			<g>
				<g>
					<path style="fill:#F48462;" d="M200.54,306.238c0,0,7.591-2.757,7.851,3.018c0.302,6.69-7.653,6.312-7.653,6.312
						L200.54,306.238z"/>
				</g>
			</g>
		</g>
	</g>
	<g>
		<path d="M182.499,305.362c0,0,2.526,1.221,8.205-2.468c5.679-3.689,4.355-8.492,4.355-8.492s7.207,5.086,8.559,11.022
			c1.351,5.936,3.164-13.605-5.33-13.691C189.794,291.647,176.811,296.467,182.499,305.362z"/>
	</g>
	<g>
		<path d="M203.926,312.493c-0.095,0-0.19-0.026-0.275-0.083c-0.23-0.151-0.294-0.462-0.142-0.692l2.709-4.105
			c0.152-0.23,0.462-0.295,0.693-0.142c0.23,0.151,0.294,0.462,0.142,0.692l-2.709,4.105
			C204.248,312.414,204.089,312.493,203.926,312.493z"/>
	</g>
	<g>
		<path d="M182.584,311.462c-0.124,0-0.249-0.046-0.346-0.139l-3.597-3.447c-0.199-0.191-0.206-0.508-0.015-0.707
			c0.191-0.2,0.507-0.206,0.707-0.016l3.597,3.447c0.199,0.191,0.206,0.508,0.015,0.707
			C182.847,311.41,182.715,311.462,182.584,311.462z"/>
	</g>
	<g>
		<path d="M179.064,311.865c-0.161,0-0.32-0.078-0.416-0.222c-0.154-0.229-0.092-0.54,0.138-0.694l2.321-1.553
			c0.229-0.152,0.54-0.091,0.693,0.138c0.154,0.229,0.092,0.54-0.138,0.694l-2.321,1.553
			C179.256,311.838,179.16,311.865,179.064,311.865z"/>
	</g>
	<g>
		<path d="M206.877,311.38c-0.037-0.001-2.15-0.153-2.15-0.153c-0.275-0.021-0.482-0.26-0.462-0.535
			c0.02-0.275,0.268-0.488,0.535-0.463l2.114,0.152c0.275,0.021,0.482,0.26,0.462,0.535
			C207.356,311.179,207.136,311.38,206.877,311.38z"/>
	</g>
	<g>
		<path d="M195.181,314.292c-0.036,0-0.073-0.004-0.109-0.012c-0.27-0.061-0.439-0.328-0.379-0.597
			c0.777-3.486-0.292-6.44-0.304-6.471c-0.096-0.258,0.036-0.546,0.294-0.643c0.259-0.094,0.546,0.035,0.643,0.294
			c0.049,0.131,1.188,3.25,0.342,7.036C195.617,314.134,195.41,314.292,195.181,314.292z"/>
	</g>
	<g>
		<path d="M193.298,318.148c-1.664,0-2.611-1.982-2.65-2.066c-0.078-0.167-0.059-0.362,0.051-0.51c0.11-0.147,0.29-0.22,0.474-0.197
			l4.772,0.698c0.192,0.028,0.351,0.165,0.407,0.352c0.056,0.186-0.001,0.388-0.146,0.517c-0.055,0.049-1.367,1.204-2.905,1.207
			C193.3,318.148,193.299,318.148,193.298,318.148z M192.152,316.529c0.31,0.334,0.707,0.619,1.146,0.619
			c0.416-0.001,0.821-0.123,1.17-0.28L192.152,316.529z"/>
	</g>
	<g>
		<path d="M200.139,303.063c-0.121,0-0.241-0.043-0.337-0.131c-0.747-0.683-2.174-0.708-2.188-0.708
			c-0.276-0.004-0.497-0.229-0.494-0.506c0.002-0.275,0.219-0.507,0.504-0.494c0.074,0.001,1.822,0.027,2.853,0.97
			c0.204,0.187,0.218,0.503,0.032,0.706C200.409,303.008,200.274,303.063,200.139,303.063z"/>
	</g>
	<g>
		<path d="M189.228,303.535c-0.13,0-0.26-0.051-0.358-0.151c-0.192-0.198-0.188-0.515,0.01-0.707
			c1.002-0.974,2.748-1.055,2.822-1.058c0.263-0.002,0.507,0.204,0.519,0.479s-0.203,0.508-0.479,0.521
			c-0.014,0-1.44,0.069-2.165,0.774C189.48,303.488,189.354,303.535,189.228,303.535z"/>
	</g>
	<g>
		<path style="fill:#40507F;" d="M192.995,332.731c-5.537,0-7.677-3.118-7.766-3.251c-0.153-0.229-0.091-0.54,0.139-0.693
			c0.23-0.153,0.54-0.092,0.693,0.139c0.077,0.113,1.963,2.806,6.934,2.806c0.023,0,0.045,0,0.068,0
			c5.585-0.026,6.712-3.064,6.757-3.194c0.091-0.259,0.374-0.395,0.634-0.31c0.26,0.089,0.4,0.369,0.313,0.63
			c-0.052,0.157-1.357,3.845-7.7,3.874C193.044,332.731,193.019,332.731,192.995,332.731z"/>
	</g>
	<g>
		<path d="M203.618,305.424c0,0,6.681-8.474,1.664-13.692c-5.018-5.218-19.468-7.825-26.295,2.033
			c-4.84,6.989,3.512,11.597,3.512,11.597l9.282-9.523l3.278-1.437l5.481,1.437L203.618,305.424z"/>
	</g>
	<g>
		<path d="M189.64,308.347c-0.268,0-0.49-0.213-0.499-0.483l-0.081-2.403c-0.006-0.163,0.069-0.319,0.201-0.418l1.542-1.148
			c0.222-0.165,0.535-0.119,0.7,0.103c0.165,0.222,0.119,0.535-0.102,0.7l-1.333,0.992l0.072,2.142
			c0.009,0.275-0.206,0.507-0.482,0.517C189.651,308.347,189.646,308.347,189.64,308.347z"/>
	</g>
	<g>
		<path d="M198.436,308.347c-0.268,0-0.49-0.213-0.499-0.483l-0.081-2.403c-0.006-0.163,0.069-0.319,0.201-0.418l1.542-1.148
			c0.222-0.165,0.535-0.119,0.7,0.103c0.165,0.222,0.119,0.535-0.102,0.7l-1.333,0.992l0.072,2.142
			c0.009,0.275-0.206,0.507-0.482,0.517C198.448,308.347,198.442,308.347,198.436,308.347z"/>
	</g>
</g>
<g>
	<g>
		<path style="fill:#E8E1EF;" d="M487.63,158.85v80c0,2.44-1.34,4.57-3.33,5.69c-0.66,0.37-1.39,0.64-2.16,0.76
			c-0.09,0.02-0.17,0.03-0.26,0.03c-0.26,0.04-0.52,0.06-0.79,0.06h-80c-0.76,0-1.5-0.13-2.18-0.38c-0.54-0.19-1.04-0.44-1.5-0.76
			c-1.73-1.17-2.86-3.16-2.86-5.4v-80c0-3.62,2.93-6.55,6.54-6.55h80C484.7,152.3,487.63,155.23,487.63,158.85z"/>
	</g>
	<g>
		<path style="fill:#A37B90;" d="M457.6,231.7l-21.38,13.69H401.3c4.01-18.33,14.32-34.69,29.67-39.02
			c3.52-0.99,6.63-0.89,9.35-0.03C453.31,210.45,457.6,231.7,457.6,231.7z"/>
	</g>
	<g>
		<path style="fill:#A37B90;" d="M481.88,245.33c-0.26,0.04-0.52,0.06-0.79,0.06h-63.33c-0.73-0.37-1.46-0.76-2.17-1.17
			c1.14-14.32,2.28-25.76,3.17-28.12c1.76-4.71,13.54-8.02,21.56-9.76c4.29-0.92,7.51-1.39,7.51-1.39s11.32,0.71,23.81,13.46
			C479.25,226.18,481.45,236.91,481.88,245.33z"/>
	</g>
	<g>
		<path d="M430.337,171.545c0,0-4.85,5.486-2.184,11.534c2.666,6.048,5.525-10.987,5.525-10.987L430.337,171.545z"/>
	</g>
	<g>
		<g>
			<path style="fill:#F48462;" d="M446.647,196.194l0.184,10.881c0,0-1.909,3.161-8.266,3.787c-4.736,0.466-6.42-0.578-6.42-0.578
				l0.568-5.522l0.561-5.385l11.452-2.723L446.647,196.194z"/>
		</g>
	</g>
	<g>
		<g>
			<path d="M444.725,196.653c-0.022,0.298,1.751,1.233,1.583,1.638c-2.343,5.477-11.071,8.23-13.806,8.521l0.772-7.436
				L444.725,196.653z"/>
		</g>
	</g>
	<g>
		<g>
			<path style="fill:#F48462;" d="M432.404,172.088c-1.494,1.216-2.539,2.89-3.157,4.714c-1.423,4.2-4.292,14.005-2.412,20.017
				c2.444,7.812,9.487,6.35,13.676,4.694c4.188-1.656,6.068-4.353,6.068-4.353s4.006,1.236,6.529-2.578
				c2.523-3.815,0.749-8.049-1.545-8.96s-4.927,0.827-4.927,0.827l1.971-4.143C448.605,182.307,440.675,165.355,432.404,172.088z"/>
		</g>
	</g>
	<g>
		<path d="M447.214,191.786c-0.152,0-0.303-0.069-0.401-0.201c-0.165-0.222-0.119-0.535,0.103-0.7l3.974-2.962
			c0.22-0.165,0.534-0.121,0.7,0.102c0.165,0.222,0.119,0.535-0.103,0.7l-3.974,2.961
			C447.423,191.754,447.318,191.786,447.214,191.786z"/>
	</g>
	<g>
		<path d="M451.682,191.649c-0.038,0-0.077-0.004-0.116-0.014l-3.243-0.776c-0.269-0.064-0.435-0.334-0.37-0.603
			c0.064-0.268,0.331-0.434,0.603-0.37l3.243,0.776c0.269,0.064,0.435,0.334,0.37,0.602
			C452.113,191.495,451.908,191.649,451.682,191.649z"/>
	</g>
	<g>
		<path d="M429.201,184.813c-0.04,0-0.082-0.005-0.123-0.016c-0.268-0.068-0.43-0.34-0.361-0.608l0.639-2.507
			c0.068-0.267,0.337-0.433,0.607-0.361c0.268,0.068,0.43,0.34,0.361,0.608l-0.639,2.507
			C429.628,184.663,429.425,184.813,429.201,184.813z"/>
	</g>
	<g>
		<path d="M436.095,185.179c-0.04,0-0.082-0.005-0.123-0.016c-0.268-0.068-0.43-0.34-0.361-0.608l0.639-2.507
			c0.067-0.267,0.338-0.432,0.607-0.361c0.268,0.068,0.43,0.34,0.361,0.608l-0.639,2.507
			C436.522,185.028,436.318,185.179,436.095,185.179z"/>
	</g>
	<g>
		<path d="M428.807,179.34c-0.252,0-0.469-0.19-0.496-0.446c-0.029-0.275,0.169-0.521,0.443-0.551l2.064-0.224
			c0.273-0.025,0.521,0.168,0.551,0.443c0.029,0.274-0.169,0.521-0.443,0.551l-2.065,0.224
			C428.843,179.339,428.825,179.34,428.807,179.34z"/>
	</g>
	<g>
		<path d="M438.171,180.998c-0.065,0-0.13-0.012-0.193-0.038l-2.807-1.175c-0.255-0.107-0.374-0.4-0.268-0.654
			c0.107-0.255,0.398-0.376,0.654-0.269l2.807,1.175c0.255,0.107,0.374,0.4,0.268,0.654
			C438.552,180.883,438.366,180.998,438.171,180.998z"/>
	</g>
	<g>
		<path d="M446.634,186.45c0,0-1.128,4.529-1.996,3.977c-0.868-0.552-1.681-7.082-1.033-10.005c0.647-2.923,1.119-4.393,1.119-4.393
			s-11.887-1.057-15.02-3.882c-3.133-2.825,3.486-4.647,10.255-3.365c6.77,1.282,9.439,3.826,9.439,3.826s4.242-0.632,5.827,1.955
			c1.585,2.588-2.023,12.419-2.023,12.419S452.134,184.515,446.634,186.45z"/>
	</g>
	<g>
		<path d="M423.964,191.128c0,0,3.322-3.678,5.012-3.126c1.691,0.551,2.305,3.024,2.305,3.024s2.006-2.778,4.219-1.996
			c2.213,0.781,6.958,1.071,7.008,1.839c0.05,0.768-1.323,1.042-1.323,1.042S430.016,193.2,423.964,191.128z"/>
	</g>
	<g>
		<path d="M446.634,186.45c0,0-0.199,7.344-0.057,10.711c0.142,3.366-9.216,8.618-15.681,5.718
			c-6.465-2.9-4.692-11.371-4.692-11.371l5.761,0.532c0,0,1.328-0.753,2.838-1.063c1.509-0.31,3.521,0.512,3.521,0.512
			L446.634,186.45z"/>
	</g>
	<g>
		<path d="M432.87,193.717c-0.23,0-0.429-0.175-0.453-0.409c-0.026-0.251,0.155-0.476,0.406-0.503
			c0.02-0.003,1.974-0.23,2.687-1.655c0.113-0.227,0.391-0.316,0.613-0.205c0.227,0.113,0.317,0.388,0.205,0.614
			c-0.939,1.879-3.31,2.145-3.41,2.155C432.902,193.716,432.887,193.717,432.87,193.717z"/>
	</g>
	<g>
		<path d="M431.076,190.254c-0.183,0-0.359-0.101-0.447-0.276c-1.618-3.233,0.707-6.632,0.807-6.775
			c0.156-0.227,0.468-0.283,0.695-0.124c0.226,0.157,0.282,0.469,0.125,0.695c-0.021,0.03-2.082,3.06-0.733,5.756
			c0.123,0.246,0.023,0.547-0.224,0.671C431.229,190.237,431.151,190.254,431.076,190.254z"/>
	</g>
	<g>
		<path style="fill:#F7B369;" d="M435.59,211.401c-3.19,0-5.657-0.621-5.876-0.678c-0.267-0.07-0.427-0.343-0.358-0.61
			c0.068-0.266,0.341-0.428,0.609-0.358c0.112,0.028,11.289,2.83,16.866-3.777c0.179-0.212,0.495-0.236,0.704-0.059
			c0.211,0.178,0.238,0.493,0.06,0.704C444.325,210.499,439.433,211.401,435.59,211.401z"/>
	</g>
	<g>
		<path style="fill:#F27E64;" d="M429.899,193.195c0,0,1.232,1.423,2.365,1.423c1.132,0,2.127-1.931,2.127-1.931L429.899,193.195z"
			/>
	</g>
</g>
<g>
	<g>
		<path style="fill:#E8E1EF;" d="M487.63,279.21v80c0,2.67-1.59,4.96-3.88,5.98c-0.55,0.25-1.15,0.43-1.78,0.5
			c-0.29,0.05-0.59,0.07-0.89,0.07h-79.99c-0.06,0-0.12,0-0.18-0.01c-1.14-0.02-2.21-0.35-3.13-0.9c-1.94-1.12-3.24-3.23-3.24-5.64
			v-80c0-3.61,2.93-6.54,6.55-6.54h79.99C484.7,272.67,487.63,275.6,487.63,279.21z"/>
	</g>
	<g>
		<polygon style="fill:#92B4EA;" points="452.33,365.76 423.09,365.76 429.35,326.16 449.84,323.35 		"/>
	</g>
	<g>
		<path style="fill:#F7B369;" d="M433.67,323.35c-0.16,0.43-0.29,0.81-0.37,1.17c0,0-2.64,8.64-5.77,32.83
			c-0.37,2.86-0.71,5.68-1.02,8.41h-13.2c1.7-15.91,3.96-33.68,5.82-36.23C421.75,325.95,429.88,324.05,433.67,323.35z"/>
	</g>
	<g>
		<path style="fill:#F7B369;" d="M481.97,365.69c-0.29,0.05-0.59,0.07-0.89,0.07h-36.13l1.61-38.92l-0.24-4.97
			c10.25-0.35,17.98,3.18,27.75,16.97C478.74,345.43,480.96,355.88,481.97,365.69z"/>
	</g>
	<g>
		<g>
			<path style="fill:#A05852;" d="M447.546,316.53l-0.995,10.173c0,0-2.121,2.745-8.119,2.646c-4.469-0.073-5.928-1.228-5.928-1.228
				l1.122-5.092l1.101-4.965l10.978-1.313L447.546,316.53z"/>
		</g>
	</g>
	<g>
		<g>
			<path d="M445.704,316.752c-0.053,0.275-0.19,0.593-0.392,0.953c-2.774,4.859-9.104,5.346-11.687,5.325l1.101-4.965
				L445.704,316.752z"/>
		</g>
	</g>
	<g>
		<g>
			<path style="fill:#A05852;" d="M434.726,294.654c0,0-6.587,12.233-5.175,19.525s7.998,6.704,11.997,5.646
				c3.999-1.059,5.999-3.293,5.999-3.293s3.529,1.529,6.234-1.647c2.705-3.176,1.529-7.175-0.47-8.234
				c-2-1.059-4.587,0.235-4.587,0.235l2.235-3.529C450.958,303.358,444.371,283.951,434.726,294.654z"/>
		</g>
	</g>
	<g>
		<path d="M448.602,312.511c-0.172,0-0.34-0.089-0.433-0.249c-0.139-0.238-0.058-0.545,0.182-0.684l4.905-2.848
			c0.236-0.139,0.544-0.06,0.683,0.182c0.139,0.238,0.058,0.545-0.182,0.684l-4.905,2.848
			C448.773,312.489,448.688,312.511,448.602,312.511z"/>
	</g>
	<g>
		<path d="M452.784,312.863c-0.057,0-0.114-0.01-0.171-0.03l-2.942-1.072c-0.26-0.095-0.394-0.382-0.299-0.641
			c0.095-0.26,0.38-0.392,0.641-0.299l2.942,1.072c0.26,0.095,0.393,0.382,0.299,0.641
			C453.18,312.737,452.988,312.863,452.784,312.863z"/>
	</g>
	<g>
		<path d="M442.762,300.948c-0.166,0-0.329-0.083-0.424-0.234c-1.1-1.754-2.709-1.103-2.776-1.074
			c-0.256,0.108-0.549-0.013-0.655-0.267c-0.107-0.255,0.013-0.548,0.267-0.655c0.85-0.357,2.776-0.507,4.013,1.465
			c0.147,0.234,0.076,0.543-0.158,0.69C442.944,300.924,442.853,300.948,442.762,300.948z"/>
	</g>
	<g>
		<path d="M432.941,299.505c-0.16,0-0.318-0.077-0.415-0.221c-0.154-0.23-0.094-0.54,0.136-0.694
			c1.694-1.14,3.241-0.037,3.306,0.012c0.223,0.162,0.271,0.475,0.108,0.698c-0.163,0.223-0.475,0.272-0.695,0.11
			c-0.046-0.031-1.062-0.731-2.16,0.01C433.135,299.478,433.038,299.505,432.941,299.505z"/>
	</g>
	<g>
		<path d="M434.307,311.087c-0.234,0-0.443-0.166-0.49-0.404c-0.827-4.257,1.614-6.994,1.719-7.108
			c0.185-0.205,0.501-0.218,0.704-0.033c0.205,0.186,0.22,0.501,0.035,0.706c-0.021,0.024-2.204,2.497-1.476,6.244
			c0.053,0.271-0.125,0.534-0.396,0.587C434.371,311.084,434.339,311.087,434.307,311.087z"/>
	</g>
	<g>
		<path d="M432.509,304.397c-0.06,0-0.119-0.011-0.178-0.033c-0.259-0.098-0.388-0.387-0.289-0.645l0.865-2.271
			c0.098-0.259,0.39-0.388,0.645-0.289c0.259,0.098,0.388,0.387,0.289,0.645l-0.865,2.271
			C432.9,304.275,432.71,304.397,432.509,304.397z"/>
	</g>
	<g>
		<path d="M438.935,305.153c-0.06,0-0.119-0.011-0.178-0.033c-0.258-0.098-0.388-0.387-0.289-0.645l0.865-2.271
			c0.098-0.26,0.389-0.386,0.645-0.289c0.258,0.098,0.388,0.387,0.289,0.645l-0.865,2.271
			C439.326,305.031,439.136,305.153,438.935,305.153z"/>
	</g>
	<g>
		<path d="M433.374,297.424c0,0,1.305-1.937,3.844-1.706c2.539,0.231,3.846,2.163,3.846,2.163s-1.531,4.164,1.698,6.772
			c3.229,2.608,5.961,2.234,5.961,2.234l2.59-0.647l2.194-3.478l-6.478-8.512l-8.525-4.445l-5.2,3.869L433.374,297.424z"/>
	</g>
	<g>
		<path d="M436.421,313.693c-0.388,0-0.65-0.049-0.684-0.056c-0.272-0.053-0.448-0.315-0.395-0.586
			c0.053-0.272,0.316-0.446,0.585-0.395c0.088,0.017,2.014,0.352,3.01-1.324c0.141-0.238,0.448-0.316,0.685-0.175
			c0.238,0.141,0.316,0.447,0.175,0.685C438.849,313.439,437.308,313.693,436.421,313.693z"/>
	</g>
	<g>
		<path style="fill:#A37B90;" d="M432.083,300.448c0,0,1.227-3.385,2.942-5.411c1.716-2.026,8.397,1.225,10.678,5.411
			c2.281,4.185,3.019,6.439,3.019,6.439s3.334-1.457,4.587-0.235c1.253,1.222,1.253,1.222,1.253,1.222s2.887-4.213,3.117-5.112
			c0.231-0.899,0.231-0.899,0.231-0.899s0.693,0.533,1.847-0.888c1.154-1.421,0.258-9.975-9.304-14.13
			c-9.562-4.156-15.271,2.408-17.513,5.409C430.699,295.256,432.083,300.448,432.083,300.448z"/>
	</g>
	<g>
		<path style="fill:#FFFFFF;" d="M437.919,329.978c-3.436,0-5.582-1.368-5.688-1.438c-0.232-0.15-0.297-0.459-0.147-0.69
			c0.149-0.231,0.458-0.297,0.691-0.148c0.028,0.018,2.873,1.816,7.168,1.108c4.43-0.73,6.249-2.888,6.267-2.909
			c0.177-0.212,0.49-0.243,0.703-0.07c0.214,0.174,0.246,0.487,0.073,0.701c-0.081,0.1-2.045,2.468-6.881,3.265
			C439.33,329.924,438.6,329.978,437.919,329.978z"/>
	</g>
	<g>
		<path style="fill:#FFA63B;" d="M457.912,302.363c-0.203,0-0.395-0.125-0.469-0.327l-0.789-2.137
			c-0.096-0.259,0.036-0.546,0.296-0.642c0.257-0.098,0.546,0.036,0.642,0.296l0.789,2.137c0.096,0.259-0.036,0.546-0.296,0.642
			C458.028,302.353,457.97,302.363,457.912,302.363z"/>
	</g>
	<g>
		<path style="fill:#F7B369;" d="M419.08,365.76h-17.99c-0.06,0-0.12,0-0.18-0.01c3.22-9.82,10.51-29.94,18.22-36.22
			C426.33,323.67,422.22,349.58,419.08,365.76z"/>
	</g>
	<g>
		<path style="fill:#FFFFFF;" d="M458.819,365.995c-0.025,0-0.051-0.002-0.077-0.006c-0.219-0.034-0.389-0.208-0.418-0.427
			c-0.152-1.116-1.369-10.922,2.494-11.671c0.747-0.141,1.17,0.159,1.388,0.439c1.459,1.883-2.189,9.809-2.936,11.379
			C459.188,365.886,459.01,365.995,458.819,365.995z M461.188,354.854c-0.048,0-0.107,0.005-0.18,0.02
			c-1.895,0.367-2.17,4.996-1.884,8.739c1.527-3.515,2.975-7.787,2.291-8.669C461.393,354.914,461.346,354.854,461.188,354.854z"/>
	</g>
</g>
<g>
	<g>
		<path style="fill:#E8E1EF;" d="M114.72,279.84v80c0,2.16-1.04,4.08-2.65,5.27c-0.49,0.37-1.04,0.66-1.63,0.88
			c-0.02,0.01-0.04,0.01-0.06,0.02c-0.69,0.25-1.43,0.38-2.2,0.38h-80c-0.46,0-0.9-0.05-1.33-0.14c-0.68-0.14-1.32-0.38-1.9-0.72
			c-1.98-1.12-3.31-3.25-3.31-5.69v-80c0-3.61,2.93-6.54,6.54-6.54h80C111.79,273.3,114.72,276.23,114.72,279.84z"/>
	</g>
	<g>
		<path style="fill:#F7B369;" d="M110.44,365.99c-0.02,0.01-0.04,0.01-0.06,0.02c-0.69,0.25-1.43,0.38-2.2,0.38H75.46
			c-0.44-0.07-0.68-0.1-0.68-0.1L62.3,339.55l-4.93-12.83l17.81-2.08c0,0,9.55-7.13,25.49,16.74
			C103.79,346.06,107.67,356.56,110.44,365.99z"/>
	</g>
	<g>
		<path style="fill:#A37B90;" d="M95.631,366.285H55.102l6.318-42.667l14.023,3.392c0,0,12.826,4.152,17.766,24.72
			C94.377,356.594,95.146,361.506,95.631,366.285z"/>
	</g>
	<g>
		<path d="M80.883,310.504c0,0,0.474-8.72-0.348-14.879c-0.557-4.176-8.018-6.479-8.018-6.479s-14.13,0.633-15.999,5.04
			c-1.869,4.407-0.376,11.052-0.376,11.052L80.883,310.504z"/>
	</g>
	<g>
		<g>
			<g>
				<g>
					<path style="fill:#FCA397;" d="M61.838,315.148l-0.091,10.235c0,0,1.82,2.959,7.803,3.499c4.457,0.402,5.89-1.876,5.89-1.876
						l-1.001-8.966l-10.791-2.475L61.838,315.148z"/>
				</g>
			</g>
		</g>
	</g>
	<g>
		<g>
			<g>
				<g>
					<path d="M61.859,314.524c0.023,0.28,0.127,0.611,0.289,0.99c2.245,5.133,10.285,7.333,12.859,7.586l-0.568-5.061
						L61.859,314.524z"/>
				</g>
			</g>
		</g>
	</g>
	<g>
		<g>
			<g>
				<g>
					<path style="fill:#C96F6F;" d="M76.929,294.73c0,0,5.257,12.881,3.076,19.992c-2.181,7.111-8.677,5.825-12.546,4.346
						s-5.623-3.917-5.623-3.917s-3.676,1.147-6.032-2.303s-0.759-7.307,1.344-8.148c2.104-0.841,4.542,0.722,4.542,0.722
						l-1.85-3.751C59.841,301.67,68.464,283.047,76.929,294.73z"/>
				</g>
			</g>
		</g>
	</g>
	<g>
		<g>
			<g>
				<g>
					<path d="M61.691,305.422c0,0,5.441,1.292,9.455-4.676c4.013-5.968,3.749-8.483,3.749-8.483l3.578,6.423
						c0,0,0.996-4.336-0.655-7.177c-1.651-2.842-3.483-2.327-3.483-2.327l-12.183,2.607l-3.51,9.575L61.691,305.422z"/>
				</g>
			</g>
		</g>
	</g>
	<g>
		<path d="M75.958,311.004c-0.231,0-0.439-0.161-0.489-0.397c-0.057-0.27,0.115-0.535,0.385-0.593
			c0.568-0.12,0.911-0.361,1.048-0.735c0.445-1.209-1.111-3.63-1.691-4.382c-0.168-0.219-0.128-0.533,0.091-0.701
			c0.217-0.169,0.531-0.13,0.701,0.09c0.263,0.342,2.553,3.391,1.838,5.338c-0.18,0.49-0.635,1.126-1.779,1.369
			C76.027,311,75.992,311.004,75.958,311.004z"/>
	</g>
	<g>
		<path d="M60.976,311.361c-0.106,0-0.213-0.044-0.29-0.13l-3.347-3.775c-0.142-0.16-0.127-0.404,0.033-0.546
			c0.159-0.142,0.403-0.127,0.546,0.032l3.347,3.775c0.142,0.16,0.127,0.404-0.033,0.546
			C61.159,311.329,61.068,311.361,60.976,311.361z"/>
	</g>
	<g>
		<path d="M57.342,310.265c-0.193,0-0.36-0.145-0.383-0.341c-0.025-0.212,0.126-0.404,0.338-0.43l2.405-0.288
			c0.213-0.03,0.404,0.126,0.43,0.338c0.025,0.212-0.126,0.404-0.338,0.43l-2.405,0.288
			C57.373,310.264,57.357,310.265,57.342,310.265z"/>
	</g>
	<g>
		<path d="M78.767,300.652c-0.034,0-0.068-0.003-0.103-0.011l-2.249-0.471c-0.27-0.057-0.443-0.321-0.387-0.592
			c0.056-0.27,0.316-0.449,0.592-0.387l2.249,0.471c0.27,0.057,0.443,0.321,0.387,0.592
			C79.206,300.49,78.998,300.652,78.767,300.652z"/>
	</g>
	<g>
		<path d="M69.311,301.818c-0.189,0-0.369-0.107-0.454-0.289c-0.116-0.251-0.007-0.548,0.243-0.664l3.774-1.753
			c0.251-0.117,0.548-0.006,0.664,0.242c0.116,0.251,0.007,0.548-0.243,0.664l-3.774,1.753
			C69.453,301.804,69.381,301.818,69.311,301.818z"/>
	</g>
	<g>
		<path d="M78.588,305.883c-0.22,0-0.422-0.147-0.482-0.369l-0.628-2.324c-0.043-0.162-0.003-0.335,0.107-0.46l0.736-0.84
			c0.182-0.209,0.498-0.228,0.706-0.047c0.208,0.182,0.229,0.498,0.046,0.705l-0.559,0.639l0.558,2.066
			c0.072,0.267-0.086,0.542-0.353,0.613C78.675,305.877,78.631,305.883,78.588,305.883z"/>
	</g>
	<g>
		<path d="M71.623,306.281c-0.22,0-0.422-0.147-0.482-0.369l-0.628-2.323c-0.045-0.166-0.002-0.343,0.114-0.469l1.015-1.106
			c0.187-0.204,0.503-0.217,0.707-0.03c0.204,0.186,0.217,0.503,0.031,0.706l-0.829,0.903l0.556,2.058
			c0.072,0.267-0.086,0.541-0.352,0.613C71.711,306.275,71.667,306.281,71.623,306.281z"/>
	</g>
	<g>
		<path style="fill:#F7B369;" d="M67.11,366.285H30.239c-0.437,0-0.855-0.048-1.264-0.133c0.969-5.928,3.183-12.816,6.945-20.816
			c11.315-24.065,25.5-21.718,25.5-21.718C68.003,333.195,67.3,361.06,67.11,366.285z"/>
	</g>
	<g>
		<path style="fill:#FFFFFF;" d="M70.188,329.513c-3.561,0-7.082-1.675-7.311-1.786c-0.192-0.093-0.272-0.324-0.18-0.516
			c0.093-0.193,0.324-0.274,0.517-0.18c0.083,0.039,8.325,3.957,11.932-0.276c0.139-0.163,0.384-0.183,0.545-0.043
			c0.162,0.139,0.182,0.382,0.044,0.545C74.279,328.963,72.227,329.513,70.188,329.513z"/>
	</g>
	<g>
		<path style="fill:#6876AA;" d="M80.131,294.346c0,0-6.675-6.861-14.589,2.996s-3.08,16.146-3.08,16.146s4.765,9.469,13.966,5.963
			c6.222-2.37,4.106-23.827,4.106-23.827s6.049,17.331,1.345,29.017c-4.704,11.687-16.841,10.646-22.578,8.6
			c-5.736-2.046-8.952-6.666-8.952-6.666l3.13-3.476c0,0-5.03-23.364,2.169-31.222C63.045,283.805,77.005,284.318,80.131,294.346z"
			/>
	</g>
	<g>
		<path d="M74.094,314.582c-1.247,0-2.145-0.798-2.5-1.329c-0.153-0.229-0.091-0.54,0.138-0.693c0.231-0.151,0.54-0.092,0.692,0.137
			c0.043,0.062,0.909,1.289,2.414,0.749c0.259-0.093,0.546,0.041,0.639,0.302c0.093,0.261-0.042,0.547-0.302,0.64
			C74.792,314.524,74.43,314.582,74.094,314.582z"/>
	</g>
	<g>
		<path style="fill:#6876AA;" d="M81.539,321.615l5.232,4.687c0,0-2.427,6.506-13.068,6.94
			C63.061,333.677,81.539,321.615,81.539,321.615z"/>
	</g>
	<g>
		<path style="fill:#40507F;" d="M74.525,332.894c-0.194,0-0.379-0.114-0.46-0.304c-0.108-0.254,0.01-0.548,0.263-0.656
			c0.053-0.022,5.295-2.315,7.08-7.456c0.09-0.26,0.375-0.398,0.636-0.309c0.261,0.091,0.399,0.376,0.308,0.637
			c-1.933,5.568-7.4,7.949-7.632,8.048C74.656,332.881,74.59,332.894,74.525,332.894z"/>
	</g>
	<g>
		<path style="fill:#40507F;" d="M71.98,329.993c-11.553,0-18.751-6.445-18.837-6.523c-0.203-0.186-0.217-0.503-0.031-0.706
			c0.186-0.205,0.503-0.219,0.706-0.032c0.1,0.092,10.197,9.103,25.641,5.347c0.266-0.067,0.538,0.099,0.604,0.367
			c0.065,0.269-0.099,0.539-0.368,0.603C76.954,329.716,74.373,329.993,71.98,329.993z"/>
	</g>
	<g>
		<path style="fill:#40507F;" d="M76.248,329.416c-12.227,0-22.685-13.344-23.163-13.963c-0.169-0.219-0.128-0.532,0.09-0.701
			c0.219-0.169,0.533-0.129,0.701,0.09c0.124,0.16,12.569,16.029,25.596,13.233c0.271-0.058,0.536,0.113,0.594,0.383
			c0.058,0.27-0.113,0.536-0.383,0.594C78.527,329.302,77.38,329.416,76.248,329.416z"/>
	</g>
</g>
<g>
	<g>
		<path style="fill:#E8E1EF;" d="M363.32,279.21v80c0,2.71-1.65,5.04-3.99,6.04c-0.17,0.07-0.35,0.14-0.53,0.2
			c-0.59,0.18-1.2,0.29-1.85,0.3c-0.06,0.01-0.11,0.01-0.17,0.01h-80c-0.5,0-0.99-0.06-1.46-0.17c-0.32-0.07-0.62-0.17-0.92-0.29
			c-0.03-0.01-0.06-0.02-0.09-0.04c-2.39-0.96-4.08-3.3-4.08-6.05v-80c0-3.61,2.93-6.54,6.55-6.54h80
			C360.39,272.67,363.32,275.6,363.32,279.21z"/>
	</g>
	<g>
		<g>
			<polygon style="fill:#A37B90;" points="328.91,365.76 299.71,365.76 302.63,332.04 320.68,327.15 327.86,329.59 			"/>
		</g>
	</g>
	<g>
		<g>
			<path d="M322.713,320.698c-4.525-0.842-17.478-21.677-17.478-21.677s-6.448-7.95-4.707-9.002
				c1.741-1.043,3.396,0.555,3.396,0.555s5.768-0.909,11.049-1.119c0.67-0.029,1.33-0.048,1.971-0.048
				c1.942-0.009,3.702,0.115,4.917,0.459c4.793,1.358,8.007,9.212,8.007,9.212s2.401-0.22,3.415,3.052
				C334.307,305.412,327.228,321.54,322.713,320.698z"/>
		</g>
	</g>
	<g>
		<g>
			<g>
				<g>
					<g>
						<path style="fill:#F48462;" d="M322.658,318.1l0.222,10.973c0,0-1.915,3.194-8.324,3.846
							c-4.774,0.485-6.476-0.562-6.476-0.562l0.554-5.571l0.548-5.433l11.54-2.784L322.658,318.1z"/>
					</g>
				</g>
			</g>
		</g>
	</g>
	<g>
		<g>
			<g>
				<g>
					<g>
						<path d="M320.722,318.57c-0.022,0.3-0.128,0.656-0.298,1.065c-2.344,5.531-9.033,6.848-11.79,7.152l0.548-5.433
							L320.722,318.57z"/>
					</g>
				</g>
			</g>
		</g>
	</g>
	<g>
		<g>
			<g>
				<g>
					<g>
						<path style="fill:#F48462;" d="M306.23,296.392c0,0-5.481,13.874-3.056,21.472c2.425,7.598,9.374,6.14,13.505,4.507
							c4.131-1.633,5.981-4.268,5.981-4.268s3.955,1.185,6.439-2.542c2.484-3.727,0.726-7.843-1.54-8.72s-4.862,0.829-4.862,0.829
							l1.938-4.044C324.635,303.626,315.164,283.763,306.23,296.392z"/>
					</g>
				</g>
			</g>
		</g>
	</g>
	<g>
		<g>
			<path d="M306.23,296.392c0,0,4.27-1.719,6.093-0.213c1.822,1.506,3.97,14.225,10.375,11.491
				c6.404-2.734,3.091-10.883,3.091-10.883S309.68,282.993,306.23,296.392z"/>
		</g>
	</g>
	<g>
		<g>
			<path style="fill:#40507F;" d="M308.72,325.95c0,0-1.54,19.39-3.54,39.81h-28.4c-0.5,0-0.99-0.06-1.46-0.17
				c-0.32-0.07,11.483-26.257,20.11-32.336C302.637,328.174,308.72,325.95,308.72,325.95z"/>
		</g>
	</g>
	<g>
		<g>
			<path style="fill:#40507F;" d="M356.95,365.75c-0.06,0.01-0.11,0.01-0.17,0.01h-32.07c-1.1-17.44-1.9-40.19-1.9-40.19
				S351.36,327.12,356.95,365.75z"/>
		</g>
	</g>
	<g>
		<path d="M323.189,313.818c-0.125,0-0.25-0.047-0.348-0.141c-0.198-0.191-0.204-0.508-0.012-0.707l3.457-3.579
			c0.191-0.198,0.508-0.203,0.707-0.012c0.198,0.191,0.204,0.508,0.012,0.707l-3.457,3.579
			C323.45,313.768,323.319,313.818,323.189,313.818z"/>
	</g>
	<g>
		<path d="M327.864,312.944c-0.041,0-0.084-0.005-0.126-0.017l-2.984-0.779c-0.268-0.069-0.428-0.343-0.357-0.609
			c0.069-0.267,0.34-0.434,0.609-0.357l2.984,0.779c0.268,0.069,0.428,0.343,0.357,0.609
			C328.289,312.796,328.087,312.944,327.864,312.944z"/>
	</g>
	<g>
		<path d="M305.325,302.652c-0.107,0-0.213-0.033-0.303-0.103c-0.215-0.166-0.261-0.471-0.099-0.689
			c0.037-0.05,0.95-1.237,3.228-0.907c0.273,0.04,0.463,0.293,0.424,0.566c-0.04,0.273-0.3,0.455-0.566,0.424
			c-1.658-0.244-2.263,0.488-2.288,0.521C305.622,302.587,305.474,302.652,305.325,302.652z"/>
	</g>
	<g>
		<path d="M315.661,302.783c-0.113,0-0.227-0.038-0.32-0.116c-1.201-1-2.579-0.632-2.594-0.629
			c-0.268,0.078-0.542-0.082-0.615-0.348c-0.074-0.267,0.082-0.542,0.348-0.615c0.078-0.021,1.906-0.507,3.502,0.824
			c0.212,0.177,0.24,0.492,0.064,0.704C315.946,302.722,315.804,302.783,315.661,302.783z"/>
	</g>
	<g>
		<path d="M305.78,308.121c-0.316-0.024-0.522-0.266-0.499-0.54l0.207-2.555c0.021-0.275,0.272-0.474,0.538-0.458
			c0.275,0.022,0.48,0.264,0.458,0.538l-0.207,2.555C306.257,307.923,306.038,308.121,305.78,308.121z"/>
	</g>
	<g>
		<path d="M313.336,308.433c-0.316-0.024-0.522-0.266-0.499-0.54l0.207-2.555c0.021-0.275,0.27-0.475,0.538-0.458
			c0.275,0.022,0.48,0.264,0.458,0.538l-0.207,2.555C313.813,308.234,313.594,308.433,313.336,308.433z"/>
	</g>
	<g>
		<path d="M307.614,314.219c-0.191,0-0.373-0.11-0.456-0.296c-1.609-3.601,0.804-6.504,0.907-6.626
			c0.178-0.208,0.492-0.236,0.703-0.057c0.211,0.178,0.237,0.493,0.059,0.704c-0.087,0.103-2.104,2.556-0.758,5.57
			c0.113,0.252,0,0.548-0.252,0.66C307.752,314.205,307.683,314.219,307.614,314.219z"/>
	</g>
	<g>
		<path d="M310.604,316.515c-0.276,0-0.5-0.224-0.5-0.5c0-0.275,0.224-0.499,0.499-0.5c0.078-0.001,1.644-0.034,2.207-1.38
			c0.106-0.255,0.398-0.373,0.654-0.268c0.255,0.106,0.374,0.399,0.268,0.654C312.906,316.492,310.697,316.515,310.604,316.515z"/>
	</g>
	<g>
		<path style="fill:#92B4EA;" d="M312.542,333.956c-2.528,0-4.365-0.475-4.408-0.485c-0.267-0.072-0.424-0.346-0.353-0.612
			c0.071-0.267,0.351-0.42,0.611-0.354c0.093,0.025,9.188,2.362,14.415-3.77c0.181-0.211,0.497-0.235,0.705-0.057
			c0.21,0.18,0.235,0.495,0.057,0.705C320.368,333.139,315.86,333.956,312.542,333.956z"/>
	</g>
</g>
<g>
	<g>
		<path style="fill:#E8E1EF;" d="M239,158.85v80c0,3.03-2.06,5.57-4.85,6.32c-0.5,0.13-1.01,0.21-1.55,0.22h-80.14
			c-0.24,0-0.48-0.01-0.71-0.04c-1.16-0.12-2.22-0.55-3.11-1.2c-1.65-1.18-2.72-3.12-2.72-5.3v-80c0-3.62,2.93-6.55,6.54-6.55h80
			C236.07,152.3,239,155.23,239,158.85z"/>
	</g>
	<g>
		<path d="M213.012,212.257c0,0-0.821-44.408-16.529-46.009c-15.708-1.601-17.569,9.437-17.569,9.437s-3.915,1.395-4.708,7.366
			c-0.793,5.971-1.164,29.789-1.164,29.789l35.47,2.03L213.012,212.257z"/>
	</g>
	<g>
		<path style="fill:#6876AA;" d="M232.6,245.39h-58.81c-2.58-0.54-4.24-0.94-4.54-1.1c-0.04-0.02-0.08-0.05-0.12-0.07
			c-0.21-0.11-0.42-0.23-0.62-0.35c-0.32-0.18-0.65-0.37-0.96-0.57c-3.12-12.39-4.36-23.6-0.48-28.16c0.19-0.26,0.43-0.49,0.68-0.7
			c0.91-0.8,1.9-1.51,2.91-2.18c0.05-0.02,0.08-0.04,0.11-0.06c1.7-1.11,3.53-2.06,5.45-2.87c0.02-0.02,0.05-0.03,0.06-0.03
			c12.38-5.16,28.342-3.089,37.042,0.551C218.382,211.951,227.87,226.68,232.6,245.39z"/>
	</g>
	<g>
		<g>
			<g>
				<g>
					<path style="fill:#F48462;" d="M185.611,196.349l0,10.907c0,0,1.967,3.136,8.348,3.655c4.753,0.386,6.258-2.055,6.258-2.055
						l-1.151-9.545l-11.522-2.535L185.611,196.349z"/>
				</g>
			</g>
		</g>
	</g>
	<g>
		<g>
			<g>
				<g>
					<path d="M185.628,195.684c0.028,0.298,0.141,0.649,0.317,1.053c2.44,5.449,11.029,7.716,13.774,7.962l-0.653-5.387
						L185.628,195.684z"/>
				</g>
			</g>
		</g>
	</g>
	<g>
		<g>
			<g>
				<g>
					<path style="fill:#F48462;" d="M201.499,174.449c0,0,5.724,13.676,3.467,21.274c-2.257,7.598-9.191,6.289-13.328,4.749
						c-4.137-1.54-6.028-4.121-6.028-4.121s-3.906,1.257-6.449-2.397c-2.543-3.654-0.878-7.779,1.355-8.695
						c2.234-0.916,4.847,0.727,4.847,0.727l-2.007-3.98C183.356,182.006,192.369,162.08,201.499,174.449z"/>
				</g>
			</g>
		</g>
	</g>
	<g>
		<path d="M200.614,191.767c-0.052,0-0.106-0.008-0.158-0.026c-0.262-0.087-0.403-0.371-0.316-0.632
			c0.816-2.445-0.975-5.168-0.993-5.195c-0.153-0.23-0.092-0.54,0.138-0.693c0.229-0.154,0.54-0.093,0.693,0.136
			c0.085,0.127,2.084,3.154,1.11,6.069C201.018,191.634,200.823,191.767,200.614,191.767z"/>
	</g>
	<g>
		<path d="M184.653,192.41c-0.136,0-0.272-0.056-0.371-0.165l-3.602-3.991c-0.185-0.205-0.169-0.521,0.036-0.706
			c0.205-0.185,0.52-0.169,0.706,0.036l3.602,3.991c0.185,0.205,0.169,0.521-0.036,0.706
			C184.893,192.368,184.773,192.41,184.653,192.41z"/>
	</g>
	<g>
		<path d="M180.771,191.276c-0.248,0-0.463-0.184-0.496-0.436c-0.035-0.274,0.158-0.524,0.432-0.56l2.561-0.33
			c0.275-0.029,0.525,0.159,0.56,0.432c0.035,0.274-0.158,0.524-0.432,0.56l-2.561,0.33
			C180.814,191.274,180.792,191.276,180.771,191.276z"/>
	</g>
	<g>
		<path d="M203.508,180.71c-0.032,0-0.065-0.003-0.099-0.01l-2.401-0.48c-0.27-0.054-0.446-0.317-0.392-0.588
			c0.054-0.271,0.315-0.45,0.588-0.392l2.401,0.48c0.271,0.054,0.446,0.317,0.392,0.588
			C203.951,180.546,203.742,180.71,203.508,180.71z"/>
	</g>
	<g>
		<path d="M193.444,182.042c-0.187,0-0.367-0.105-0.452-0.285c-0.119-0.249-0.012-0.548,0.237-0.667l3.217-1.529
			c0.25-0.118,0.548-0.012,0.667,0.237c0.119,0.249,0.012,0.548-0.237,0.667l-3.217,1.529
			C193.589,182.026,193.516,182.042,193.444,182.042z"/>
	</g>
	<g>
		<path d="M202.404,186.285c-0.218,0-0.419-0.145-0.481-0.365l-0.691-2.471c-0.045-0.161-0.007-0.334,0.103-0.461l0.776-0.902
			c0.179-0.21,0.496-0.234,0.705-0.053c0.209,0.18,0.233,0.496,0.053,0.705l-0.601,0.699l0.619,2.213
			c0.075,0.266-0.08,0.542-0.347,0.616C202.494,186.279,202.449,186.285,202.404,186.285z"/>
	</g>
	<g>
		<path d="M194.563,186.771c-0.218,0-0.419-0.145-0.481-0.365l-0.691-2.471c-0.046-0.165-0.005-0.342,0.11-0.47l1.07-1.188
			c0.186-0.206,0.501-0.221,0.706-0.037c0.205,0.185,0.221,0.501,0.037,0.707l-0.886,0.983l0.617,2.206
			c0.074,0.266-0.081,0.542-0.347,0.616C194.653,186.765,194.608,186.771,194.563,186.771z"/>
	</g>
	<g>
		<path d="M205.419,179.307c0,0-3.768-0.752-6.411-0.653c-2.643,0.099-2.643,0.099-2.643,0.099l-1.073-4.251l0.014,4.637
			c0,0-1.866,0.32-3.713,1.286c-1.847,0.966-3.073,2.156-3.073,2.156l-1.752-3.576l0.738,4.502l-2.142,2.479l-3.232-3.027
			l2.07-6.275c0,0,4.878-6.81,5.254-6.892c0.376-0.081,7.41-0.469,7.41-0.469s6.051,2.365,6.198,2.564
			C203.209,172.087,205.419,179.307,205.419,179.307z"/>
	</g>
	<g>
		<path style="fill:#FFFFFF;" d="M194.806,211.071c-2.774,0-6.229-0.748-9.934-3.31c-0.227-0.157-0.284-0.468-0.127-0.695
			c0.156-0.228,0.468-0.286,0.695-0.127c8.357,5.775,15.246,1.827,15.314,1.787c0.237-0.139,0.544-0.061,0.685,0.176
			c0.14,0.238,0.062,0.545-0.176,0.686C201.22,209.613,198.677,211.071,194.806,211.071z"/>
	</g>
	<g>
		<path style="fill:#6876AA;" d="M184.94,245.39h-32.48c-0.24,0-0.48-0.01-0.71-0.04c4.12-12.92,10.3-26.4,13.57-29.38
			c1.28-1.18,2.49-2.12,3.59-2.89c0.04-0.01,0.07-0.03,0.11-0.06c2.87-1.97,5.01-2.73,5.45-2.86c0.02-0.02,0.05-0.03,0.06-0.03
			C174.55,210.13,184.94,245.39,184.94,245.39z"/>
	</g>
	<g>
		<path d="M199.185,195.925c-1.079,0-2.409-1.056-2.85-1.433c-0.16-0.137-0.217-0.36-0.142-0.558
			c0.075-0.197,0.231-0.324,0.477-0.322l4.446,0.081c0.199,0.004,0.377,0.125,0.453,0.309c0.076,0.184,0.036,0.396-0.103,0.538
			c-0.029,0.029-0.708,0.725-1.667,1.24C199.611,195.882,199.403,195.925,199.185,195.925z M198.324,194.642
			c0.444,0.231,0.829,0.351,1.002,0.258c0.137-0.074,0.268-0.152,0.392-0.232L198.324,194.642z"/>
	</g>
	<g>
		<path style="fill:#FFFFFF;" d="M215.829,243.339c-0.06,0-0.121-0.011-0.18-0.033c-0.257-0.1-0.386-0.39-0.286-0.646
			c3.045-7.886-1.921-15.952-1.971-16.033c-0.147-0.233-0.076-0.542,0.158-0.689c0.232-0.15,0.542-0.077,0.689,0.157
			c0.217,0.346,5.286,8.564,2.057,16.924C216.219,243.218,216.03,243.339,215.829,243.339z"/>
	</g>
</g>
<g>
	<g>
		<path style="fill:#E8E1EF;" d="M611.95,38.44v80c0,2.67-1.59,4.96-3.88,5.98c-0.81,0.37-1.72,0.57-2.67,0.57h-79.99
			c-0.39,0-0.78-0.03-1.15-0.1c-0.78-0.14-1.51-0.42-2.16-0.81c-1.94-1.12-3.24-3.23-3.24-5.64v-80c0-3.61,2.93-6.54,6.55-6.54
			h79.99C609.02,31.9,611.95,34.83,611.95,38.44z"/>
	</g>
	<g>
		<path d="M567.964,47.468c0,0,8.965-1.342,15.388,2.685c6.424,4.027,3.515,14.744,3.515,14.744s10.291,8.059,10.85,16.903
			c0.559,8.845-7.494,12.089-7.494,12.089l-21.221-3.244L567.964,47.468z"/>
	</g>
	<g>
		<path style="fill:#F7B369;" d="M550.45,84.96l-3.3,40.03h-21.74c-0.39,0-0.78-0.03-1.15-0.1c1.73-7.8,6.42-19.87,10.43-26.45
			C541.73,86.91,550.45,84.96,550.45,84.96z"/>
	</g>
	<g>
		<path style="fill:#F7B369;" d="M585.61,124.99h-44.32l6.2-38.59c0,0,10.49-5.7,18.7-5.41c1.7,0.05,3.39,0.34,5.05,0.78
			c6.35,1.61,11.96,5.58,13.59,9.47C585.54,92.91,585.7,107.02,585.61,124.99z"/>
	</g>
	<g>
		<path style="fill:#F7B369;" d="M605.03,124.99h-33.96l-1.91-18.58l1.85-25.43C571.01,80.98,596.33,88.33,605.03,124.99z"/>
	</g>
	<g>
		<path style="fill:#92B4EA;" d="M571.062,82.215c0,0-3.704,5.438-8.029,8.709c-4.325,3.272-6.301,3.658-6.301,3.658l0.276-10.551
			L571.062,82.215z"/>
	</g>
	<g>
		<g>
			<path style="fill:#F48462;" d="M570.848,71.346l0.18,10.454c0,0-1.833,3.038-7.941,3.64c-4.549,0.449-6.168-0.553-6.168-0.553
				l0.544-5.306l0.537-5.174l11.001-2.619L570.848,71.346z"/>
		</g>
	</g>
	<g>
		<g>
			<path d="M569.003,71.788c-0.021,0.286-0.124,0.625-0.286,1.014c-2.249,5.262-8.625,6.499-11.252,6.78l0.537-5.174L569.003,71.788
				z"/>
		</g>
	</g>
	<g>
		<g>
			<path style="fill:#F48462;" d="M555.26,50.619c0,0-5.261,13.202-2.972,20.447c2.288,7.245,8.913,5.876,12.852,4.332
				c3.94-1.544,5.71-4.049,5.71-4.049s3.765,1.141,6.142-2.403c2.377-3.544,0.714-7.47-1.442-8.312
				c-2.156-0.841-4.634,0.776-4.634,0.776l1.858-3.847C572.773,57.562,563.807,38.613,555.26,50.619z"/>
		</g>
	</g>
	<g>
		<path d="M571.392,67.131c-0.152,0-0.303-0.069-0.4-0.201c-0.165-0.221-0.12-0.535,0.102-0.7l4.651-3.468
			c0.22-0.165,0.534-0.121,0.699,0.102c0.165,0.221,0.12,0.535-0.102,0.7l-4.651,3.468
			C571.601,67.099,571.496,67.131,571.392,67.131z"/>
	</g>
	<g>
		<path d="M575.684,66.998c-0.038,0-0.077-0.004-0.116-0.014l-3.115-0.745c-0.268-0.064-0.435-0.334-0.37-0.603
			c0.063-0.269,0.332-0.437,0.603-0.37l3.115,0.745c0.269,0.064,0.435,0.334,0.37,0.603
			C576.115,66.844,575.91,66.998,575.684,66.998z"/>
	</g>
	<g>
		<path d="M564.104,56.065c-0.146,0-0.292-0.064-0.391-0.188c-1.303-1.629-2.144-1.35-2.154-1.347
			c-0.248,0.09-0.541-0.03-0.642-0.278c-0.101-0.248,0-0.527,0.244-0.639c0.15-0.071,1.531-0.613,3.333,1.64
			c0.172,0.215,0.138,0.53-0.078,0.703C564.323,56.03,564.213,56.065,564.104,56.065z"/>
	</g>
	<g>
		<path d="M553.956,55.749c-0.141,0-0.281-0.06-0.38-0.175c-0.18-0.21-0.155-0.525,0.055-0.705c1.418-1.213,2.578-1.434,2.627-1.443
			c0.269-0.048,0.531,0.13,0.581,0.403c0.049,0.271-0.13,0.53-0.4,0.581c-0.023,0.004-0.971,0.204-2.157,1.219
			C554.187,55.709,554.071,55.749,553.956,55.749z"/>
	</g>
	<g>
		<path d="M555.887,65.664c-0.242,0-0.455-0.177-0.493-0.424c-0.565-3.673,1.033-6.311,1.102-6.421
			c0.144-0.235,0.451-0.307,0.687-0.162c0.235,0.145,0.308,0.452,0.164,0.688c-0.015,0.024-1.471,2.449-0.964,5.744
			c0.042,0.273-0.146,0.528-0.418,0.57C555.939,65.662,555.912,65.664,555.887,65.664z"/>
	</g>
	<g>
		<path d="M554.089,60.771c-0.04,0-0.082-0.005-0.123-0.016c-0.268-0.068-0.43-0.34-0.361-0.608l0.563-2.216l-0.648-1.159
			c-0.135-0.241-0.049-0.545,0.192-0.681c0.239-0.133,0.545-0.048,0.681,0.192l0.746,1.333c0.063,0.112,0.08,0.243,0.048,0.368
			l-0.613,2.409C554.516,60.621,554.313,60.771,554.089,60.771z"/>
	</g>
	<g>
		<path d="M561.682,60.786c-0.04,0-0.082-0.005-0.123-0.016c-0.268-0.068-0.43-0.34-0.361-0.608l0.552-2.169l-0.912-1.155
			c-0.171-0.217-0.134-0.531,0.083-0.703c0.216-0.171,0.53-0.135,0.702,0.083l1.065,1.349c0.097,0.122,0.131,0.283,0.092,0.434
			l-0.613,2.409C562.108,60.636,561.905,60.786,561.682,60.786z"/>
	</g>
	<g>
		<path d="M570.915,61.718l-1.913,2.529c0,0-4.081-5.658-4.07-8.812c0.011-3.154,0-4.25,0-4.25s-4.099,1.496-7.469,1.396
			c-3.37-0.1-5.495-1.895-5.272-3.49c0.224-1.595,2.215-6.481,12.74-4.886C575.459,45.8,575.656,58.092,570.915,61.718z"/>
	</g>
	<g>
		<path style="fill:#FFFFFF;" d="M551.71,96.313c-0.259,0-0.478-0.2-0.497-0.463c-0.021-0.275,0.185-0.515,0.461-0.536
			c0.107-0.008,10.745-0.956,19.146-13.926c0.15-0.231,0.463-0.296,0.691-0.147c0.232,0.15,0.298,0.46,0.148,0.691
			c-8.688,13.413-19.459,14.346-19.913,14.379C551.735,96.312,551.723,96.313,551.71,96.313z"/>
	</g>
	<g>
		<path style="fill:#FFFFFF;" d="M556.749,94.437c-0.289-0.007-0.507-0.237-0.5-0.513l0.296-11.334
			c0.007-0.275,0.276-0.473,0.513-0.487c0.276,0.007,0.494,0.237,0.487,0.513l-0.296,11.334
			C557.242,94.222,557.02,94.437,556.749,94.437z"/>
	</g>
	<g>
		<path d="M557.379,69.315c-0.216,0-0.423-0.042-0.607-0.142c-0.243-0.131-0.335-0.434-0.204-0.677
			c0.13-0.244,0.435-0.334,0.677-0.204c0.302,0.159,1.333-0.353,2.06-0.921c0.215-0.169,0.531-0.133,0.702,0.086
			c0.17,0.217,0.131,0.532-0.087,0.702C559.526,68.468,558.351,69.315,557.379,69.315z"/>
	</g>
	<g>
		<path style="fill:#FFFFFF;" d="M538.383,124.538c-0.21,0-0.405-0.133-0.475-0.343c-3.147-9.519,2.707-19.082,2.957-19.484
			c0.146-0.234,0.454-0.305,0.69-0.16c0.234,0.146,0.306,0.454,0.16,0.689c-0.06,0.095-5.855,9.574-2.857,18.642
			c0.087,0.262-0.056,0.545-0.317,0.631C538.487,124.53,538.435,124.538,538.383,124.538z"/>
	</g>
</g>
<g>
	<g>
		<path style="fill:#E8E1EF;" d="M487.63,38.44v80c0,0.92-0.19,1.8-0.53,2.59c-0.65,1.52-1.86,2.74-3.37,3.4
			c-0.08,0.04-0.16,0.07-0.25,0.1c-0.12,0.05-0.25,0.09-0.37,0.13c-0.63,0.22-1.31,0.33-2.02,0.33h-80c-0.45,0-0.89-0.05-1.32-0.13
			c-0.23-0.05-0.46-0.11-0.68-0.19c-0.37-0.11-0.73-0.27-1.07-0.45c-2.07-1.1-3.47-3.27-3.47-5.78v-80c0-3.61,2.93-6.54,6.54-6.54
			h80C484.7,31.9,487.63,34.83,487.63,38.44z"/>
	</g>
	<g>
		<path d="M447.792,67.618c0,0,21.239-14.003,13.871-22.052c-7.368-8.049-16.626,12.013-16.626,12.013L447.792,67.618z"/>
	</g>
	<g>
		<path style="fill:#6876AA;" d="M427.31,124.04c-1.58-0.47-3.07,0.03-4.5,0.95h-18.84c6.77-26.41,23.41-33.23,23.41-33.23
			S427.99,104.53,427.31,124.04z"/>
	</g>
	<g>
		<g>
			<path d="M434.522,52.925c0,0,11.163-7.257,17.932,1.79c6.573,8.783,0.15,18.746,0.15,18.746l-15.189-11.842L434.522,52.925z"/>
		</g>
	</g>
	<g>
		<g>
			<path style="fill:#6876AA;" d="M472.45,124.99h-61.27c0.31-6.03,1.03-12.51,2.76-17.29c3.57-9.85,11.47-15.39,15.85-17.1
				c5.21-2.04,18.13-2.04,18.13-2.04s21.91,3.88,22.84,20.2C470.92,111.42,472.12,118.69,472.45,124.99z"/>
		</g>
	</g>
	<g>
		<g>
			<path style="fill:#F48462;" d="M448.242,78.945l0.476,10.438c0,0-1.746,3.086-7.829,3.861c-4.532,0.577-6.177-0.378-6.177-0.378
				l0.393-5.315l0.39-5.184l10.915-2.928L448.242,78.945z"/>
		</g>
	</g>
	<g>
		<g>
			<path d="M446.411,79.439c-0.014,0.286-0.106,0.628-0.257,1.021c-2.098,5.32-8.432,6.736-11.048,7.091l0.39-5.184L446.411,79.439z
				"/>
		</g>
	</g>
	<g>
		<g>
			<path style="fill:#F48462;" d="M432.083,58.681c0,0-4.881,13.336-2.39,20.509c2.491,7.172,9.069,5.617,12.961,3.964
				c3.892-1.654,5.589-4.206,5.589-4.206s3.793,1.033,6.067-2.575c2.274-3.608,0.501-7.482-1.676-8.262s-4.607,0.907-4.607,0.907
				l1.747-3.896C449.775,65.122,440.282,46.446,432.083,58.681z"/>
		</g>
	</g>
	<g>
		<g>
			<path d="M448.028,69.018c0,0-5.502,1.522-9.82-4.416c-4.318-5.938-4.142-8.514-4.142-8.514l-3.408,7.238
				c0,0-1.18-4.938,0.398-7.898c1.578-2.96,3.466-2.503,3.466-2.503l12.526,2.204l3.939,9.636L448.028,69.018z"/>
		</g>
	</g>
	<g>
		<path style="fill:#F7B369;" d="M446.906,98.906c-2.875,0-5.461-3.076-6.371-4.293c-1.228,1.124-4.611,4.043-6.894,3.948
			c-0.599-0.019-1.09-0.234-1.459-0.64c-1.064-1.171,1.055-4.107,2.015-5.315c0.133-0.166,0.358-0.231,0.559-0.161
			c8.968,3.17,13.797-3.176,13.998-3.447c0.116-0.157,0.313-0.233,0.502-0.193c0.19,0.039,0.342,0.184,0.387,0.373
			c0.058,0.239,1.385,5.883-0.224,8.425c-0.416,0.658-0.99,1.069-1.707,1.219C447.442,98.88,447.173,98.906,446.906,98.906z
			 M441.461,94.173c0.998,1.29,3.56,4.19,6.046,3.671c0.447-0.094,0.797-0.348,1.067-0.775c1.027-1.622,0.589-5.028,0.29-6.696
			C447.726,91.528,445.208,93.614,441.461,94.173z M434.765,93.506c-1.257,1.65-2.137,3.418-1.842,3.743
			c0.183,0.201,0.428,0.303,0.751,0.313c1.514,0.045,4.132-1.897,5.692-3.248C437.966,94.296,436.431,94.058,434.765,93.506z"/>
	</g>
	<g>
		<g>
			<path style="fill:#6876AA;" d="M483.11,124.66c-0.63,0.22-1.31,0.33-2.02,0.33h-17.47c1.16-10.59-1.14-30.27-1.14-30.27
				S473.83,99.21,483.11,124.66z"/>
		</g>
	</g>
	<g>
		<path d="M433.057,75.235c-0.209,0-0.404-0.132-0.475-0.342c-0.993-2.973,1.047-6.061,1.134-6.191
			c0.154-0.229,0.463-0.291,0.693-0.136c0.228,0.153,0.29,0.464,0.137,0.693c-0.019,0.028-1.851,2.815-1.015,5.317
			c0.087,0.262-0.055,0.545-0.316,0.632C433.162,75.227,433.109,75.235,433.057,75.235z"/>
	</g>
	<g>
		<path d="M448.86,75.235c-0.119,0-0.239-0.043-0.335-0.129c-0.205-0.185-0.222-0.501-0.036-0.706l3.681-4.078
			c0.186-0.205,0.501-0.222,0.706-0.036c0.205,0.185,0.222,0.501,0.036,0.706l-3.681,4.078
			C449.133,75.179,448.997,75.235,448.86,75.235z"/>
	</g>
	<g>
		<path d="M452.827,74.076c-0.021,0-0.043-0.001-0.064-0.004l-2.616-0.337c-0.274-0.036-0.468-0.286-0.433-0.56
			c0.035-0.274,0.29-0.465,0.56-0.432l2.616,0.337c0.275,0.036,0.468,0.286,0.433,0.56C453.29,73.892,453.074,74.076,452.827,74.076
			z"/>
	</g>
	<g>
		<path d="M430.657,63.826c-0.233,0-0.441-0.164-0.489-0.402c-0.055-0.271,0.121-0.534,0.392-0.588l1.895-0.379
			c0.258-0.055,0.533,0.121,0.588,0.392c0.055,0.271-0.121,0.534-0.393,0.588l-1.894,0.379
			C430.724,63.823,430.69,63.826,430.657,63.826z"/>
	</g>
	<g>
		<path d="M440.383,65.298c-0.072,0-0.146-0.016-0.215-0.048l-3.286-1.562c-0.249-0.119-0.355-0.417-0.236-0.667
			c0.118-0.25,0.418-0.355,0.666-0.237l3.286,1.562c0.249,0.119,0.355,0.417,0.236,0.666
			C440.749,65.193,440.569,65.298,440.383,65.298z"/>
	</g>
	<g>
		<path d="M431.228,69.634c-0.044,0-0.09-0.006-0.135-0.019c-0.266-0.074-0.421-0.35-0.347-0.616l0.634-2.267l-0.618-0.719
			c-0.181-0.21-0.156-0.525,0.053-0.705c0.211-0.18,0.526-0.156,0.705,0.053l0.793,0.922c0.109,0.127,0.147,0.3,0.103,0.461
			l-0.706,2.524C431.648,69.489,431.446,69.634,431.228,69.634z"/>
	</g>
	<g>
		<path d="M438.58,70.131c-0.044,0-0.09-0.006-0.135-0.019c-0.266-0.074-0.421-0.351-0.347-0.616l0.633-2.259l-0.909-1.009
			c-0.186-0.205-0.169-0.521,0.036-0.706c0.205-0.185,0.521-0.168,0.706,0.037l1.094,1.213c0.115,0.127,0.156,0.305,0.11,0.47
			l-0.707,2.524C439,69.986,438.799,70.131,438.58,70.131z"/>
	</g>
	<g>
		<path d="M434.696,78.66c-0.346,0-0.704-0.046-1.072-0.156c-0.265-0.079-0.415-0.357-0.337-0.622
			c0.078-0.264,0.354-0.414,0.622-0.336c1.89,0.563,3.623-1.167,3.64-1.185c0.196-0.196,0.511-0.198,0.707-0.004
			c0.196,0.193,0.199,0.509,0.006,0.706C438.188,77.139,436.667,78.66,434.696,78.66z"/>
	</g>
	<g>
		<path style="fill:#F7B369;" d="M422.827,124.538c-0.172,0-0.34-0.089-0.433-0.249c-4.978-8.561-0.049-17.125,0.002-17.21
			c0.139-0.238,0.446-0.317,0.684-0.177c0.238,0.14,0.317,0.446,0.178,0.684c-0.047,0.081-4.677,8.155,0.002,16.2
			c0.139,0.239,0.058,0.545-0.182,0.684C422.999,124.516,422.913,124.538,422.827,124.538z"/>
	</g>
</g>
<g>
	<g>
		<path style="fill:#E8E1EF;" d="M239,38.44v80c0,2.28-1.16,4.29-2.92,5.44c-0.16,0.12-0.34,0.23-0.51,0.32
			c-0.29,0.16-0.6,0.3-0.91,0.41c-0.41,0.15-0.84,0.26-1.29,0.31c-0.3,0.05-0.6,0.07-0.91,0.07h-80c-0.09,0-0.18,0-0.27-0.01
			c-0.57-0.02-1.13-0.12-1.66-0.28c-2.67-0.82-4.61-3.31-4.61-6.26v-80c0-3.61,2.93-6.54,6.54-6.54h80
			C236.07,31.9,239,34.83,239,38.44z"/>
	</g>
	<g>
		<g>
			<path d="M182.45,59.824c0,0-15.919,6.088-16.731,24.106c-1.174,26.042,30.036,20.005,30.036,20.005s17.677,1.834,22.566-11.197
				c4.89-13.031-10.827-20.897-10.827-20.897S188.438,55.059,182.45,59.824z"/>
		</g>
	</g>
	<g>
		<path style="fill:#68B6D8;" d="M233.37,124.92c-0.3,0.05-0.6,0.07-0.91,0.07h-80c-0.09,0-0.18,0-0.27-0.01
			c5.57-23.82,21.27-38.73,37.72-41.31c0.04,0,0.08-0.01,0.12-0.02c1.21-0.18,2.47-0.3,3.77-0.35
			C212.09,82.63,229.01,103.61,233.37,124.92z"/>
	</g>
	<g>
		<path style="fill:#68B6D8;" d="M215.9,124.99h-50.5c-0.08-8.07-0.12-14.2-0.12-14.2l17.76-17.21l8.72-8.44
			c0.11,0,0.22,0,0.33,0.01c4.8,0.13,8.85,1.41,12.04,2.95c0.51,0.26,1,0.51,1.47,0.77c4.43,2.45,6.83,5.21,6.83,5.21
			S214.16,109.06,215.9,124.99z"/>
	</g>
	<g>
		<g>
			<path style="fill:#F48462;" d="M189.625,75.845l0.368,9.848c0,0,1.845,3.024,8.003,3.294c4.587,0.201,6.217-1.103,6.217-1.103
				l-0.713-4.513l-0.822-5.16l-11.177-2.025L189.625,75.845z"/>
		</g>
	</g>
	<g>
		<g>
			<path d="M189.625,75.345c0.037,0.286,0.159,0.62,0.343,1.001c2.544,5.155,10.882,6.888,13.532,7.026l-0.822-5.16L189.625,75.345z
				"/>
		</g>
	</g>
	<g>
		<g>
			<path style="fill:#F48462;" d="M204.125,54.203c0,0,5.999,12.953,4.101,20.344c-1.898,7.392-8.617,6.382-12.653,5.049
				c-4.036-1.333-5.949-3.748-5.949-3.748s-3.713,1.35-6.292-2.074c-2.578-3.424-1.125-7.453,0.991-8.415
				c2.116-0.962,4.69,0.525,4.69,0.525l-2.074-3.757C186.94,62.126,194.895,42.629,204.125,54.203z"/>
		</g>
	</g>
	<g>
		<path d="M206.062,59.585c-0.024,0-0.049-0.002-0.074-0.005l-2.561-0.38c-0.273-0.041-0.462-0.295-0.421-0.568
			c0.041-0.273,0.295-0.456,0.568-0.421l2.561,0.38c0.273,0.041,0.462,0.295,0.421,0.568
			C206.519,59.407,206.305,59.585,206.062,59.585z"/>
	</g>
	<g>
		<path d="M196.51,60.644c-0.195,0-0.38-0.115-0.461-0.306c-0.107-0.255,0.013-0.548,0.267-0.655l2.972-1.248
			c0.255-0.105,0.548,0.013,0.655,0.267c0.107,0.255-0.013,0.548-0.267,0.655l-2.972,1.249
			C196.641,60.631,196.575,60.644,196.51,60.644z"/>
	</g>
	<g>
		<path d="M204.046,70.207c-0.017,0-0.034-0.001-0.051-0.002c-0.275-0.028-0.475-0.273-0.447-0.548
			c0.411-4.043-1.265-6.078-1.282-6.098c-0.178-0.211-0.153-0.525,0.057-0.704c0.209-0.179,0.523-0.155,0.703,0.053
			c0.081,0.094,1.974,2.349,1.518,6.85C204.517,70.015,204.299,70.207,204.046,70.207z"/>
	</g>
	<g>
		<path d="M199.962,74.585c-0.198,0-0.404-0.027-0.617-0.087c-1.653-0.473-1.839-2.369-1.846-2.449
			c-0.014-0.162,0.051-0.32,0.175-0.425c0.124-0.105,0.292-0.144,0.449-0.102l3.883,1.006c0.162,0.042,0.292,0.162,0.347,0.32
			c0.055,0.158,0.027,0.333-0.074,0.466C202.233,73.372,201.294,74.585,199.962,74.585z M198.709,72.706
			c0.161,0.339,0.438,0.695,0.911,0.83c0.474,0.138,0.917-0.044,1.251-0.27L198.709,72.706z"/>
	</g>
	<g>
		<path d="M189.031,71.286c-0.069,0-0.139-0.014-0.206-0.045l-5.273-2.397c-0.251-0.114-0.362-0.411-0.248-0.662
			c0.114-0.25,0.409-0.364,0.662-0.248l5.273,2.397c0.251,0.114,0.362,0.411,0.248,0.662
			C189.403,71.177,189.222,71.286,189.031,71.286z"/>
	</g>
	<g>
		<path d="M184.334,72.505c-0.129,0-0.258-0.049-0.356-0.148c-0.194-0.196-0.192-0.513,0.004-0.707l2.325-2.298
			c0.197-0.195,0.513-0.193,0.707,0.004c0.194,0.196,0.192,0.513-0.004,0.707l-2.325,2.298
			C184.587,72.457,184.46,72.505,184.334,72.505z"/>
	</g>
	<g>
		<path d="M196.51,55.605c0,0,3.003-0.429,6.136,1.354c3.133,1.783,3.777,3.521,3.777,3.521s1.938-4.604-2.31-8.666
			s-12.397-5.188-17.095-0.382c-4.698,4.806-4.41,9.048-4.41,9.048l6.406,5.404C189.014,65.883,198.907,64.09,196.51,55.605z"/>
	</g>
	<g>
		<path d="M185.875,52.723c0,0-6.044-11.479-12.171-6.628c-6.126,4.851,0.696,14.641,6.781,15.355
			C186.571,62.164,185.875,52.723,185.875,52.723z"/>
	</g>
	<g>
		<path style="fill:#F7B369;" d="M198.558,89.488c-5.678,0-8.891-3.411-8.934-3.457c-0.186-0.203-0.172-0.519,0.03-0.706
			c0.204-0.187,0.52-0.174,0.706,0.029c0.211,0.228,5.276,5.555,14.229,1.846c0.254-0.104,0.548,0.015,0.653,0.271
			c0.106,0.255-0.015,0.547-0.271,0.653C202.582,89.115,200.435,89.488,198.558,89.488z"/>
	</g>
	<g>
		<path style="fill:#E6F4FF;" d="M190.336,75.345c0,1.038-0.841,1.879-1.879,1.879c-1.038,0-1.879-0.841-1.879-1.879
			c0-1.038,0.841-1.879,1.879-1.879C189.495,73.465,190.336,74.307,190.336,75.345z"/>
	</g>
	<g>
		<path d="M197.997,66.033c-0.276,0-0.5-0.224-0.5-0.5v-2.299c0-0.131,0.052-0.257,0.144-0.351l1.018-1.033
			c0.194-0.197,0.51-0.199,0.708-0.005c0.196,0.194,0.199,0.511,0.005,0.708l-0.874,0.887v2.094
			C198.497,65.81,198.273,66.033,197.997,66.033z"/>
	</g>
	<g>
		<path d="M205.552,66.033c-0.276,0-0.5-0.224-0.5-0.5v-2.299c0-0.131,0.052-0.257,0.144-0.351l1.018-1.033
			c0.193-0.197,0.509-0.2,0.707-0.005c0.197,0.194,0.199,0.51,0.005,0.707l-0.874,0.887v2.094
			C206.052,65.81,205.829,66.033,205.552,66.033z"/>
	</g>
	<g>
		<path style="fill:#F7B369;" d="M214.216,124c-0.069,0-0.14-0.015-0.207-0.045c-0.251-0.115-0.362-0.411-0.247-0.662
			c5.956-13.038-1.861-22.54-1.94-22.634c-0.178-0.211-0.151-0.526,0.059-0.705c0.212-0.178,0.526-0.151,0.705,0.059
			c0.083,0.099,8.313,10.064,2.086,23.695C214.587,123.892,214.406,124,214.216,124z"/>
	</g>
</g>
<g>
	<g>
		<path style="fill:#E8E1EF;" d="M114.69,38.44v80c0,2.83-1.8,5.25-4.32,6.16c-0.22,0.08-0.44,0.15-0.67,0.2
			c-0.32,0.08-0.66,0.14-1,0.17c-0.18,0.01-0.37,0.02-0.55,0.02h-80c-0.7,0-1.37-0.11-2-0.32c-0.17-0.04-0.33-0.1-0.49-0.17
			c-0.31-0.13-0.61-0.28-0.89-0.45c-1.9-1.14-3.17-3.23-3.17-5.61v-80c0-3.61,2.93-6.54,6.55-6.54h80
			C111.76,31.9,114.69,34.83,114.69,38.44z"/>
	</g>
	<g>
		<path style="fill:#92B4EA;" d="M97.66,124.99H28.84c1.03-10.4,6.75-27.46,11.47-32.79c4.82-5.45,16.43-9.13,28.33-8.74
			c0,0,16.21-0.07,22.96,8.22C94.39,95.1,97.21,111.79,97.66,124.99z"/>
	</g>
	<g>
		<path style="fill:#92B4EA;" d="M109.7,124.8c-0.32,0.08-0.66,0.14-1,0.17c-0.18,0.01-0.37,0.02-0.55,0.02H84.63l-3.67-7.84
			l11.4-24.22L109.7,124.8z"/>
	</g>
	<g>
		<g>
			<g>
				<g>
					<path style="fill:#F48462;" d="M59.754,75.023l-0.759,9.354c0,0,0.637,2.837,6.757,3.837c4.559,0.746,7.047-2.006,7.047-2.006
						l-0.078-2.019l-0.209-5.252l-10.926-3.35L59.754,75.023z"/>
				</g>
			</g>
		</g>
	</g>
	<g>
		<g>
			<g>
				<g>
					<path d="M61.587,75.588c0.003,0.29,0.085,0.638,0.224,1.041c1.93,5.452,8.28,7.109,10.911,7.561l-0.209-5.252L61.587,75.588z"
						/>
				</g>
			</g>
		</g>
	</g>
	<g>
		<g>
			<g>
				<g>
					<path style="fill:#F48462;" d="M76.809,55.124c0,0,4.455,13.652,1.681,20.811c-2.774,7.159-9.367,5.352-13.24,3.541
						c-3.874-1.811-5.498-4.451-5.498-4.451s-3.87,0.908-6.039-2.819c-2.169-3.727-0.239-7.579,1.99-8.289
						c2.228-0.71,4.623,1.081,4.623,1.081l-1.626-4C58.7,60.999,68.962,42.466,76.809,55.124z"/>
				</g>
			</g>
		</g>
	</g>
	<g>
		<path d="M74.637,71.791c-0.065,0-0.132-0.013-0.196-0.04c-0.254-0.108-0.372-0.402-0.264-0.656
			c0.976-2.289-0.536-5.052-0.551-5.08c-0.134-0.241-0.048-0.545,0.193-0.68c0.241-0.134,0.545-0.048,0.68,0.192
			c0.073,0.13,1.769,3.214,0.598,5.96C75.016,71.677,74.831,71.791,74.637,71.791z"/>
	</g>
	<g>
		<path d="M59.178,71.061c-0.12,0-0.238-0.054-0.316-0.156l-3.166-4.136c-0.134-0.174-0.101-0.424,0.074-0.558
			c0.174-0.136,0.424-0.101,0.558,0.074l3.166,4.136c0.134,0.174,0.1,0.424-0.074,0.558C59.347,71.035,59.262,71.061,59.178,71.061z
			"/>
	</g>
	<g>
		<path d="M55.518,69.662c-0.211,0-0.387-0.166-0.397-0.379c-0.011-0.22,0.159-0.406,0.378-0.416l2.498-0.118
			c0.231-0.023,0.407,0.159,0.417,0.379c0.011,0.22-0.159,0.406-0.378,0.416l-2.498,0.118C55.53,69.662,55.524,69.662,55.518,69.662
			z"/>
	</g>
	<g>
		<path d="M69.212,66.294c-0.271,0-0.494-0.216-0.5-0.488l-0.059-2.471c-0.006-0.276,0.212-0.505,0.488-0.512
			c0.275-0.009,0.505,0.212,0.512,0.488l0.059,2.471c0.006,0.276-0.212,0.505-0.488,0.512C69.22,66.294,69.216,66.294,69.212,66.294
			z"/>
	</g>
	<g>
		<path d="M76.512,66.463c-0.266,0-0.487-0.21-0.499-0.479l-0.106-2.47c-0.012-0.276,0.202-0.509,0.478-0.521
			c0.277-0.02,0.509,0.202,0.521,0.478l0.106,2.47c0.012,0.276-0.202,0.509-0.478,0.521C76.526,66.463,76.519,66.463,76.512,66.463z
			"/>
	</g>
	<g>
		<path d="M68.005,61.658c-0.098,0-0.197-0.029-0.284-0.089c-0.227-0.157-0.284-0.469-0.126-0.696
			c1.146-1.652,3.321-0.897,3.414-0.864c0.26,0.093,0.394,0.378,0.302,0.637c-0.092,0.26-0.376,0.395-0.637,0.305
			c-0.063-0.022-1.549-0.529-2.256,0.491C68.319,61.583,68.163,61.658,68.005,61.658z"/>
	</g>
	<g>
		<path d="M77.544,61.646c-0.168,0-0.332-0.084-0.426-0.237c-0.111-0.178-0.499-0.659-0.96-0.752
			c-0.253-0.049-0.507,0.018-0.779,0.209c-0.225,0.159-0.538,0.105-0.697-0.121c-0.159-0.226-0.105-0.538,0.121-0.697
			c0.497-0.351,1.037-0.478,1.562-0.37c0.965,0.2,1.542,1.105,1.605,1.208c0.144,0.236,0.07,0.543-0.166,0.688
			C77.722,61.623,77.632,61.646,77.544,61.646z"/>
	</g>
	<g>
		<path d="M76.809,55.125l-0.844-1.233c0,0-1.037,0.711-3.344,1.198c-3.543,0.768-7.705,0.552-7.705,0.552s0.699,1.015,0.538,4.667
			c-0.16,3.664-3.961,5.704-3.961,5.704c-1.336-0.941-2.463-1.475-3.41-1.758c-0.41-0.116-0.774-0.19-1.113-0.231
			c-2.193-0.216-3.009,1.138-3.009,1.138s-5.045-8.041,0.792-13.819c4.093-4.034,9.573-3.776,12.477-3.255
			c0.987,0.18,1.672,0.386,1.923,0.464c0.068,0.019,0.103,0.029,0.103,0.029s8.739-2.072,10.192-0.777
			C80.901,49.089,77.857,55.179,76.809,55.125z"/>
	</g>
	<g>
		<path d="M71.754,75.536c-0.341,0-0.709-0.059-1.086-0.214c-0.502-0.206-0.86-0.549-1.037-0.993
			c-0.309-0.779,0.037-1.582,0.077-1.671c0.056-0.124,0.16-0.219,0.288-0.265c0.127-0.046,0.268-0.037,0.39,0.023l3.263,1.622
			c0.155,0.077,0.259,0.229,0.275,0.401c0.017,0.172-0.058,0.341-0.195,0.445C73.683,74.919,72.853,75.536,71.754,75.536z
			 M70.506,73.593c-0.004,0.125,0.009,0.254,0.057,0.371c0.076,0.188,0.234,0.33,0.484,0.432c0.443,0.183,0.874,0.163,1.228,0.076
			L70.506,73.593z"/>
	</g>
	<g>
		<polygon style="fill:#A2C5F9;" points="73.75,124.99 69.08,124.99 65.89,88.67 69.3,89.56 		"/>
	</g>
	<g>
		<path style="fill:#E6F4FF;" d="M72.946,83.894c0,0,3.972,11.044,2.813,10.88c-1.159-0.164-8.298-5.845-8.298-5.845
			s-4.674,6.428-6.304,6.547c-1.63,0.119-2.163-11.504-2.163-11.504s1.233,3.287,7.318,3.844S72.946,83.894,72.946,83.894z"/>
	</g>
	<g>
		<path style="fill:#E6F4FF;" d="M92.383,124c-0.244,0-0.457-0.178-0.494-0.426l-2.5-16.67c-0.041-0.273,0.147-0.528,0.42-0.569
			c0.283-0.036,0.528,0.148,0.569,0.42l2.5,16.67c0.041,0.273-0.147,0.528-0.42,0.569C92.432,123.998,92.407,124,92.383,124z"/>
	</g>
</g>
</svg>
