<svg xmlns="http://www.w3.org/2000/svg" viewBox="0 0 100 100" fill="none">
  <circle cx="50" cy="50" r="50" fill="#E8F8F5"/>
  <!-- Face -->
  <circle cx="50" cy="44" r="22" fill="#FDBF97"/>
  <!-- Hair -->
  <ellipse cx="50" cy="25" rx="22" ry="12" fill="#5D4037"/>
  <rect x="28" y="25" width="44" height="6" fill="#5D4037"/>
  <!-- Ears -->
  <ellipse cx="29" cy="44" rx="4" ry="5" fill="#FDBF97"/>
  <ellipse cx="71" cy="44" rx="4" ry="5" fill="#FDBF97"/>
  <!-- Eyes -->
  <ellipse cx="42" cy="42" rx="3" ry="3.5" fill="#2D1B0E"/>
  <ellipse cx="58" cy="42" rx="3" ry="3.5" fill="#2D1B0E"/>
  <circle cx="43" cy="41" r="1" fill="white"/>
  <circle cx="59" cy="41" r="1" fill="white"/>
  <!-- Eyebrows (thicker) -->
  <path d="M37 37 Q42 35 47 37" stroke="#3E2723" stroke-width="2.5" stroke-linecap="round" fill="none"/>
  <path d="M53 37 Q58 35 63 37" stroke="#3E2723" stroke-width="2.5" stroke-linecap="round" fill="none"/>
  <!-- Nose -->
  <ellipse cx="50" cy="48" rx="2.5" ry="2" fill="#E8967A"/>
  <!-- Beard -->
  <path d="M31 52 Q34 68 50 70 Q66 68 69 52 Q60 58 50 58 Q40 58 31 52Z" fill="#5D4037"/>
  <!-- Moustache -->
  <path d="M42 54 Q46 58 50 55 Q54 58 58 54" fill="#5D4037"/>
  <!-- Smile -->
  <path d="M43 55 Q50 60 57 55" stroke="#C0705A" stroke-width="1.5" stroke-linecap="round" fill="none"/>
  <!-- Body -->
  <path d="M22 100 Q22 76 50 76 Q78 76 78 100Z" fill="#8E44AD"/>
</svg>
