<svg xmlns="http://www.w3.org/2000/svg" enable-background="new 0 0 128 128" viewBox="0 0 128 128" id="pet-care">
  <g id="Love_Pet">
    <g>
      <path fill="#ff91c4" d="M64,18.8C35.482-7.172-1.419,17.709,3.391,51.383c5.095,35.668,49.601,49.946,59.694,72.287
			c0.362,0.801,1.468,0.801,1.829,0c10.093-22.341,54.599-36.619,59.694-72.287C129.419,17.709,92.518-7.172,64,18.8z"></path>
      <path fill="#ffb555" d="M116.54,32.02l-1.09,7.05c-0.27,1.78-1.69,3.15-3.48,3.37c-4.36,0.53-12.6,1.15-19.03-0.59
			C90.03,45.92,81.65,58.47,80,70l-11.77,30.74L56.14,113.7c-4.69-5.06-10.74-9.89-17.1-14.96c-0.03-0.02-0.06-0.05-0.09-0.07
			c-3.89-3.11-7.89-6.31-11.75-9.69L27,88c8.13-25.88,17.76-40.11,22.22-45.77c0.49-0.63,0.92-1.15,1.28-1.57
			c-0.14-0.08-0.27-0.17-0.4-0.27c-0.01,0-0.01,0-0.01,0c-0.27-0.18-0.52-0.37-0.74-0.57C45.66,36.57,47.14,31.09,51,28
			c2.6-2.08,5.9-7.12,9.66-11.98C65.75,9.49,71.69,3.28,78,5c2.83,0.76,4.46,2,5.33,3.4c0.05,0.07,0.09,0.14,0.13,0.21
			c0.63,1.12,0.79,2.33,0.71,3.5c0,0.04-0.01,0.09-0.01,0.13h0.01l1.63,0.18l10.64,1.18c2.27,0.26,4.33,1.45,5.67,3.3L108,25
			l6.21,2.76C115.86,28.49,116.81,30.24,116.54,32.02z"></path>
      <path fill="#f07b31" d="M85.8,12.42c-0.05,0.49-0.14,0.98-0.27,1.46c-0.48,1.71-1.26,3.24-2.3,4.68c-0.17,0.22-0.49,0.27-0.72,0.1
			c-0.22-0.16-0.27-0.47-0.12-0.69c0.95-1.67,1.79-3.75,1.78-5.73L85.8,12.42z"></path>
      <path fill="#303256" d="M100,22c0,1.66-0.9,3-2,3c-0.69,0-1.3-0.53-1.67-1.33L97,23l-1-1c0-1.66,0.9-3,2-3S100,20.34,100,22z"></path>
      <circle cx="114" cy="31" r="3" fill="#303256"></circle>
      <path fill="#f07b31" d="M75.63,30.23c-0.38-0.02-0.69,0.3-0.69,0.68c-0.48,5.45-2.07,11.1-4.51,16.02c-1.06,1.86-2.24,3.94-4.3,4.18
			c-2.24-0.1-3.61-1.74-4.58-3.69c-1.39-2.74-4.33-4.69-7.23-5.31c-1.29-0.31-2.69-0.74-3.82-1.45c-0.36,0.42-0.79,0.94-1.28,1.57
			C44.76,47.89,35.13,62.12,27,88l0.2,0.98c3.889,3.406,7.921,6.629,11.838,9.761c0.001,0,0.001,0,0.002-0.001
			c3.388-25.924,11.988-38.405,17.571-43.955c2.17-2.157,5.315-2.814,8.304-2.158c0.406,0.089,0.825,0.143,1.255,0.163
			c1.73-0.06,3.17-1.35,4.09-2.59c2.85-4,4.12-8.82,5.2-13.52c0.38-1.89,0.75-3.74,0.8-5.77C76.27,30.55,75.99,30.25,75.63,30.23z"></path>
      <path fill="#f4e1d4" d="M89,77.68v3.01c0,1.44-0.74,2.77-1.96,3.53l-8.57,5.36c-3.26,2.04-4.84,5.95-3.91,9.67l2.37,9.48
			c-5.294,4.795-9.63,9.651-12.025,14.964c-0.355,0.788-1.471,0.747-1.827-0.04c-4.076-8.999-13.72-16.686-24.127-24.984
			C40.86,85.46,46.22,60.53,60,54c0,0,1.32,3.96,1.33,8.97v0.11l1.99,0.12l9.35,0.55c2.7,0.15,5.14,1.67,6.48,4.01L81,71l3.46,0.86
			C87.13,72.53,89,74.93,89,77.68z"></path>
      <path fill="#ddc1af" d="M63.32,63.2c-0.07,3.05-0.6,6.11-1.8,8.9c-0.12,0.28-0.44,0.41-0.72,0.29c-0.26-0.11-0.39-0.41-0.3-0.67
			c0.88-2.79,1.07-5.75,0.83-8.64L63.32,63.2z"></path>
      <path fill="#303256" d="M75,73c0,1.657-1.343,0-3,0s-3,1.657-3,0s1.343-3,3-3S75,71.343,75,73z"></path>
    </g>
    <path fill="#303256" d="M116.242,19.239c-7.085-7.99-16.996-12.431-27.264-12.223c-0.553,0.012-0.99,0.47-0.979,1.022
		c0.012,0.552,0.47,1.012,1.021,0.978c9.68-0.199,19.03,4,25.725,11.55c7.254,8.183,10.488,19.363,8.872,30.675
		c-2.99,20.936-20.137,34.622-35.265,46.697c-3.771,3.01-7.468,5.964-10.851,8.949l-1.969-7.875
		c-0.829-3.32,0.562-6.769,3.464-8.581l8.575-5.359C89.093,84.121,90,82.483,90,80.69v-3.006c0-3.218-2.181-6.01-5.303-6.791
		l-3.041-0.76l-0.875-1.532c0.102-0.132,0.184-0.282,0.209-0.459c1.746-12.227,10.669-23.068,12.441-25.118
		c3.033,0.729,6.387,0.99,9.609,0.99c3.335,0,6.524-0.274,9.055-0.583c2.218-0.271,4.004-2,4.344-4.205l1.085-7.053
		c0.342-2.224-0.855-4.416-2.911-5.329l-5.961-2.65l-5.733-7.883c-1.505-2.07-3.828-3.419-6.372-3.702l-11.362-1.263
		c-0.021-0.747-0.136-1.503-0.403-2.243c-0.877-2.424-3.069-4.129-6.518-5.07c-6.632-1.81-12.64,4.11-17.789,10.619
		C47.973,5.568,33.147,4.505,20.66,11.88C7.259,19.794,0.092,35.356,2.401,51.524c3.103,21.721,20.579,35.67,35.998,47.977
		c11.011,8.789,21.41,17.09,24.652,26.815C63.187,126.725,63.569,127,64,127s0.812-0.275,0.948-0.684
		c3.242-9.725,13.642-18.026,24.652-26.815c15.419-12.307,32.896-26.256,35.998-47.977C127.298,39.63,123.888,27.863,116.242,19.239
		z M64,123.269c-4.17-9.22-13.997-17.064-24.354-25.33c-3.856-3.078-7.841-6.261-11.692-9.641
		c7.697-24.491,16.354-37.624,20.829-43.272c0.343-0.433,0.27-1.062-0.163-1.405s-1.062-0.269-1.405,0.163
		c-4.507,5.689-13.169,18.813-20.895,43.058c-10.585-9.563-19.82-20.759-21.939-35.6C2.187,35.878,8.976,21.104,21.678,13.602
		c11.755-6.944,25.742-5.936,37.569,2.632c-0.876,1.146-1.725,2.293-2.546,3.402c-2.356,3.183-4.582,6.189-6.325,7.583
		c-3.124,2.499-4.717,6.36-3.963,9.607c0.412,1.777,1.918,4.938,7.371,6.15c4.487,0.998,5.654,2.99,6.781,4.917
		c1.025,1.751,2.085,3.562,5.271,4.093c0.219,0.037,0.437,0.055,0.653,0.055c1.032,0,2.042-0.413,3.009-1.232
		C74.257,46.778,77,33.485,77,30c0-0.552-0.447-1-1-1s-1,0.448-1,1c0,3.27-2.819,15.916-6.795,19.283
		c-0.712,0.602-1.382,0.84-2.041,0.73c-2.262-0.377-2.938-1.532-3.873-3.131c-1.219-2.082-2.734-4.672-8.074-5.859
		c-3.296-0.732-5.32-2.34-5.856-4.649c-0.583-2.513,0.729-5.565,3.265-7.594c1.946-1.557,4.141-4.522,6.683-7.955
		c5.532-7.473,12.421-16.774,19.43-14.861c2.78,0.758,4.516,2.042,5.159,3.814c1.223,3.366-1.687,7.606-1.717,7.648
		c-0.314,0.453-0.204,1.076,0.248,1.392s1.074,0.207,1.392-0.246c0.098-0.14,1.668-2.426,2.199-5.232l11.307,1.257
		c1.986,0.221,3.8,1.275,4.976,2.891l5.891,8.1c0.104,0.142,0.242,0.254,0.402,0.325l6.206,2.759
		c1.234,0.548,1.952,1.863,1.747,3.198l-1.085,7.052c-0.204,1.323-1.277,2.361-2.609,2.523c-5.845,0.713-19.988,1.738-25.1-4.104
		c-0.365-0.416-0.997-0.457-1.411-0.094c-0.416,0.364-0.458,0.995-0.095,1.411c1.512,1.727,3.635,2.93,6.07,3.757
		c-2.626,3.141-9.881,12.626-12.025,23.783c-1.579-2.028-3.948-3.298-6.56-3.451l-10.406-0.612
		c-0.136-4.643-1.299-8.215-1.378-8.452c-0.09-0.271-0.293-0.491-0.556-0.604c-0.264-0.111-0.561-0.106-0.821,0.016
		c-11.48,5.441-17.262,22.962-20.089,36.702c-0.111,0.541,0.237,1.07,0.778,1.181C40.328,90.994,40.396,91,40.463,91
		c0.465,0,0.881-0.326,0.979-0.798c2.645-12.85,7.886-29.083,17.928-34.749c0.657,2.607,1.925,9.249-0.306,15.196
		c-0.193,0.517,0.068,1.093,0.585,1.288c0.518,0.19,1.094-0.068,1.288-0.585c0.906-2.416,1.284-4.897,1.374-7.214l10.304,0.606
		c2.37,0.14,4.488,1.454,5.667,3.515l1.85,3.237c0.135,0.237,0.361,0.408,0.626,0.474l3.455,0.864
		C86.442,73.392,88,75.386,88,77.685v3.006c0,1.099-0.557,2.103-1.488,2.686l-8.575,5.359c-3.638,2.274-5.384,6.599-4.343,10.762
		l2.226,8.904C70.663,113.13,66.395,117.972,64,123.269z"></path>
  </g>
</svg>
